<?xml version="1.0" encoding="UTF-8"?>
<svg version="1.1" xmlns="http://www.w3.org/2000/svg" width="512" height="512">
<path d="M0 0 C12.73227317 7.5512658 21.83086631 22.77330549 30.39990234 34.50976562 C30.93180176 35.23357422 31.46370117 35.95738281 32.01171875 36.703125 C32.72847778 37.68780762 32.72847778 37.68780762 33.4597168 38.69238281 C34.68622615 40.38624112 34.68622615 40.38624112 36.75 41.25 C37.01425781 40.51523437 37.27851563 39.78046875 37.55078125 39.0234375 C39.50501211 34.5038808 42.59900579 30.9962539 45.75 27.25 C46.26433594 26.63769531 46.77867187 26.02539062 47.30859375 25.39453125 C59.10065913 12.54382658 75.41013498 7.53517658 92.234375 6.02734375 C114.42170644 5.17112123 134.4841778 15.52956703 150.8984375 29.58984375 C169.19243172 46.65588494 180.94454527 71.64497621 182.12890625 96.609375 C182.46695274 109.05382445 181.89002106 120.45229294 177.75 132.25 C177.18925781 133.87421875 177.18925781 133.87421875 176.6171875 135.53125 C170.06503405 152.71438091 157.58283151 165.68557255 141.125 173.5625 C130.43495228 178.26912523 120.31174841 179.33428978 108.75 179.25 C109.02150879 180.14380371 109.29301758 181.03760742 109.57275391 181.95849609 C119.22517046 213.87315141 128.3616471 246.23551602 130.41015625 279.68359375 C130.46205612 280.47267624 130.51395599 281.26175873 130.56742859 282.07475281 C130.81696512 285.913475 131.02256852 289.74477805 131.1472168 293.58959961 C131.48530626 300.54301084 132.05104633 305.42058568 137.1484375 310.51953125 C138.66987586 311.77818142 140.2029676 313.02294429 141.75 314.25 C142.90392126 315.49463171 144.0346976 316.76177596 145.125 318.0625 C148.05902235 321.47873436 151.07553477 324.81195554 154.125 328.125 C155.07166527 329.15620347 156.01827997 330.18745337 156.96484375 331.21875 C158.74615538 333.15863354 160.53037189 335.09569983 162.31640625 337.03125 C170.58847663 346.08010459 175.4597886 353.09185463 175.171875 365.83203125 C173.86399159 376.42830887 166.34062067 384.72581511 160.02734375 392.91015625 C156.58684437 397.40389072 153.41137161 402.05746489 150.25 406.75 C145.72263526 413.45166016 141.02325787 419.97109167 136.12670898 426.40673828 C132.24109481 431.53592819 128.57807647 436.79073993 124.9621582 442.11230469 C120.97171932 447.9701693 116.83581823 453.71470313 112.66967773 459.44848633 C109.38348677 463.97548673 106.13509417 468.52593587 102.92285156 473.10571289 C80.47087461 505.11571599 80.47087461 505.11571599 62.7734375 509.77734375 C45.36354425 512.49904541 30.48388054 508.54285985 16.0859375 498.3671875 C11.46080611 494.80401981 7.5160561 491.06565425 3.79296875 486.58203125 C1.08555743 483.49154452 -1.82570178 480.6339801 -4.75 477.75 C-8.80519978 473.74147714 -12.6898329 469.69129436 -16.37890625 465.33984375 C-18.8938345 462.53089466 -21.56835322 459.89891383 -24.25 457.25 C-27.51382297 454.02601619 -30.71830119 450.81482179 -33.6875 447.3125 C-36.85009982 443.59042307 -40.27970696 440.18133928 -43.75 436.75 C-47.78298474 432.76223443 -51.64402465 428.73505092 -55.3125 424.40625 C-58.01030585 421.40385317 -60.88043819 418.58739183 -63.75 415.75 C-67.7829811 411.76223169 -71.64402462 407.73505095 -75.3125 403.40625 C-78.5536655 399.79914646 -82.04262379 396.43821105 -85.48999023 393.02954102 C-88.95386446 389.58963479 -92.22124934 386.0644615 -95.37890625 382.33984375 C-97.8938345 379.53089466 -100.56835322 376.89891383 -103.25 374.25 C-106.51382297 371.02601619 -109.71830119 367.81482179 -112.6875 364.3125 C-115.85009982 360.59042307 -119.27970696 357.18133928 -122.75 353.75 C-126.78298474 349.76223443 -130.64402465 345.73505092 -134.3125 341.40625 C-137.5536655 337.79914646 -141.04262379 334.43821105 -144.48999023 331.02954102 C-147.95386446 327.58963479 -151.22124934 324.0644615 -154.37890625 320.33984375 C-156.8938345 317.53089466 -159.56835322 314.89891383 -162.25 312.25 C-165.51382297 309.02601619 -168.71830119 305.81482179 -171.6875 302.3125 C-174.85009982 298.59042307 -178.27970696 295.18133928 -181.75 291.75 C-185.78298474 287.76223443 -189.64402465 283.73505092 -193.3125 279.40625 C-196.5536655 275.79914646 -200.04262379 272.43821105 -203.48999023 269.02954102 C-206.95386446 265.58963479 -210.22124934 262.0644615 -213.37890625 258.33984375 C-215.8938345 255.53089466 -218.56835322 252.89891383 -221.25 250.25 C-224.51382297 247.02601619 -227.71830119 243.81482179 -230.6875 240.3125 C-233.85009982 236.59042307 -237.27970696 233.18133928 -240.75 229.75 C-244.78298474 225.76223443 -248.64402465 221.73505092 -252.3125 217.40625 C-255.5536655 213.79914646 -259.04262379 210.43821105 -262.48999023 207.02954102 C-265.95386446 203.58963479 -269.22124934 200.0644615 -272.37890625 196.33984375 C-274.8938345 193.53089466 -277.56835322 190.89891383 -280.25 188.25 C-283.51382297 185.02601619 -286.71830119 181.81482179 -289.6875 178.3125 C-293.4129087 173.92315707 -297.51994358 169.92712993 -301.63256836 165.90454102 C-306.53185808 161.08160768 -310.34297089 156.95249314 -312.4375 150.25 C-312.92283203 148.7340625 -312.92283203 148.7340625 -313.41796875 147.1875 C-316.7181393 135.53619365 -316.58803811 123.25871361 -311.25 112.25 C-304.74320796 101.22124638 -294.23726048 95.7725363 -282.625 91.34375 C-281.5094574 90.90567017 -280.39391479 90.46759033 -279.24456787 90.01623535 C-276.21567696 88.82929878 -273.18257564 87.65403129 -270.14726257 86.48364258 C-266.92789024 85.23876027 -263.7146567 83.97823755 -260.50097656 82.71875 C-255.80389058 80.8791484 -251.10522142 79.0437103 -246.40443802 77.21357727 C-234.13707902 72.43653842 -221.90445938 67.5728735 -209.67172241 62.70803833 C-206.0175186 61.25695662 -202.36131079 59.81105074 -198.7043457 58.36694336 C-188.91027696 54.49757911 -179.11848753 50.62836055 -169.38357544 46.61196899 C-165.87342293 45.16429913 -162.35730823 43.73145921 -158.84069824 42.29956055 C-156.53671438 41.35325011 -154.24370971 40.38344719 -151.95019531 39.41210938 C-140.18380608 34.55500997 -129.87209306 33.62652059 -117.66015625 37.78125 C-108.70664445 41.63751625 -100.6064024 46.88193868 -93.25 53.25 C-89.22846773 51.91182463 -86.99433666 50.28049218 -84.125 47.1875 C-80.07154917 42.99381446 -75.80069121 39.32805297 -71.25 35.6875 C-68.54945261 33.49330525 -65.92105748 31.24206846 -63.30126953 28.95361328 C-20.12819012 -8.69098418 -20.12819012 -8.69098418 0 0 Z " fill="#79E9B2" transform="translate(326.25,1.75)"/>
<path d="M0 0 C7.13334874 3.41160157 7.13334874 3.41160157 10 6 C10 10 10 10 8.05859375 12.296875 C6.76115234 13.51117188 6.76115234 13.51117188 5.4375 14.75 C1.02488055 18.99622178 -3.0245781 23.35051812 -7 28 C-7.97669567 29.11430689 -8.95468052 30.22748447 -9.93359375 31.33984375 C-29.93150559 52.0438044 -29.93150559 52.0438044 -38.2734375 78.08984375 C-37.51071854 86.20735268 -32.91096517 92.63187857 -27 98 C-24.21548476 100.09188457 -21.39761762 102.10419988 -18.53540039 104.08666992 C3.32579411 119.27786101 22.68789691 139.17661616 38.72070312 160.32666016 C39.96670139 161.95644491 41.23602849 163.56448061 42.515625 165.16796875 C79.6962877 212.01560375 102.11741916 269.62399863 115.6875 327.3125 C116.45120933 330.54341477 117.22084355 333.77277509 118 337 C118.16032715 337.66902344 118.3206543 338.33804687 118.48583984 339.02734375 C120.78355985 348.34412624 124.16858709 355.22468912 132.4375 360.5 C139.26272214 363.47270417 148.38878524 363.17076013 155.5078125 361.36328125 C163.75095817 357.39842221 170.56070406 349.32421403 177 343 C177.91845703 342.10200684 178.83691406 341.20401367 179.78320312 340.27880859 C182.31594855 337.79938689 184.83940902 335.31078857 187.3571167 332.81610107 C188.35261118 331.82997351 189.34935514 330.84510535 190.34747314 329.8616333 C197.04840898 323.24623289 203.12612619 316.35289052 209 309 C210.55974687 307.20593607 212.12163824 305.41372933 213.6875 303.625 C224.59666633 290.55778986 233.46747183 275.69490963 242 261 C266.88714868 285.74356898 266.88714868 285.74356898 267.625 297.5 C266.93897592 309.22774492 258.23274279 318.60813862 251.60839844 327.76660156 C249.56164233 330.60869701 247.5477364 333.47308019 245.53540039 336.33959961 C240.37123253 343.69509346 235.12892486 350.99170652 229.85571289 358.26928711 C226.20012194 363.32059959 222.58652934 368.39946067 219 373.5 C214.29596974 380.18881048 209.54102564 386.83879061 204.72802734 393.44970703 C202.16874594 396.96939448 199.64168449 400.50083127 197.203125 404.10546875 C196.76564941 404.74395752 196.32817383 405.38244629 195.87744141 406.0402832 C194.71273866 407.74647056 193.56278125 409.46269798 192.4140625 411.1796875 C188.89051112 415.29619898 185.41446715 417.54826098 179.97265625 418.56640625 C172.96222434 418.55699627 168.29309531 417.74392206 163 413 C161.29285059 411.25414947 159.72686301 409.44560475 158.171875 407.5625 C155.27100456 404.13989028 152.1988494 400.89200482 149.125 397.625 C144.42725266 392.61452096 139.77770082 387.56933271 135.19921875 382.44921875 C131.30402917 378.11123675 127.3515627 373.82547426 123.40722656 369.53222656 C121.10291448 367.02322888 118.80158909 364.51149532 116.5 362 C115.58334808 360.99998648 114.6666814 359.99998649 113.75 359 C111.91666667 357 110.08333333 355 108.25 353 C107.79608887 352.50483887 107.34217773 352.00967773 106.87451172 351.49951172 C105.95941367 350.50119339 105.04437445 349.50282114 104.12939453 348.50439453 C101.81421148 345.9782158 99.4979599 343.45303168 97.1796875 340.9296875 C92.95233249 336.32650235 88.73473917 331.71586224 84.5625 327.0625 C80.10356085 322.09487617 75.57561669 317.19316748 71.04296875 312.29296875 C66.80209267 307.7073279 62.58545151 303.09955083 58.36767578 298.49267578 C56.97420848 296.97185124 55.57912249 295.45252676 54.18359375 293.93359375 C49.95476524 289.32926052 45.73596914 284.71723405 41.5625 280.0625 C37.10356085 275.09487617 32.57561669 270.19316748 28.04296875 265.29296875 C23.80209267 260.7073279 19.58545151 256.09955083 15.36767578 251.49267578 C13.97420848 249.97185124 12.57912249 248.45252676 11.18359375 246.93359375 C6.95476524 242.32926052 2.73596914 237.71723405 -1.4375 233.0625 C-5.89643915 228.09487617 -10.42438331 223.19316748 -14.95703125 218.29296875 C-19.19790733 213.7073279 -23.41454849 209.09955083 -27.63232422 204.49267578 C-29.02579152 202.97185124 -30.42087751 201.45252676 -31.81640625 199.93359375 C-36.04523476 195.32926052 -40.26403086 190.71723405 -44.4375 186.0625 C-48.89643915 181.09487617 -53.42438331 176.19316748 -57.95703125 171.29296875 C-62.19790733 166.7073279 -66.41454849 162.09955083 -70.63232422 157.49267578 C-72.02579152 155.97185124 -73.42087751 154.45252676 -74.81640625 152.93359375 C-79.04523476 148.32926052 -83.26403086 143.71723405 -87.4375 139.0625 C-91.89643915 134.09487617 -96.42438331 129.19316748 -100.95703125 124.29296875 C-105.20071432 119.70429271 -109.42040541 115.09368397 -113.64111328 110.48388672 C-115.46779417 108.48917482 -117.29549705 106.49540093 -119.12329102 104.50170898 C-120.03923222 103.50260376 -120.95508545 102.50341789 -121.87084961 101.50415039 C-124.18593628 98.97803926 -126.50211788 96.45294702 -128.8203125 93.9296875 C-130.66883699 91.9173413 -132.51522447 89.90307405 -134.359375 87.88671875 C-136.07487374 86.01134365 -137.79345452 84.13878151 -139.515625 82.26953125 C-152.43156029 68.13470802 -152.43156029 68.13470802 -152.2734375 58.41015625 C-151.64053609 52.83158241 -149.23694413 49.15448119 -145.1875 45.375 C-141.45794165 42.99720298 -137.38581904 41.31924263 -133.3125 39.625 C-132.65854248 39.34962402 -132.00458496 39.07424805 -131.33081055 38.79052734 C-128.80941588 37.79592875 -126.6039894 36.9822682 -123.87109375 37.0625 C-121.12446871 38.43867956 -119.04919725 40.34513728 -116.75 42.375 C-110.35547666 47.70942332 -104.90891036 50.70648661 -96.375 50.26074219 C-87.44686707 49.28055654 -78.91068374 44.3969764 -70.82617188 40.69458008 C-68.63961041 39.69418456 -66.44901939 38.70306251 -64.2578125 37.71289062 C-45.72138704 30.1578283 -45.72138704 30.1578283 -32.85546875 15.6796875 C-31.83340605 12.47815777 -31.57813351 9.53920299 -31.375 6.1875 C-31.30023438 5.02605469 -31.22546875 3.86460938 -31.1484375 2.66796875 C-31.07496094 1.34732422 -31.07496094 1.34732422 -31 0 C-19.87429275 -5.89162748 -11.5816167 -4.54892415 0 0 Z " fill="#99E0FE" transform="translate(209,63)"/>
<path d="M0 0 C6.54012261 3.73927363 12.61775584 7.73253376 18.09375 12.94140625 C16.50418716 16.75457103 14.08614303 19.31419025 11.21875 22.25390625 C10.35507813 23.15753906 9.49140625 24.06117187 8.6015625 24.9921875 C6.09375 26.94140625 6.09375 26.94140625 4.125 26.9140625 C1.54382579 25.67807715 -1.00244747 24.40753899 -3.53125 23.06640625 C-12.21993667 18.67455491 -21.44874087 14.77511812 -31.24609375 17.62109375 C-33.1590635 18.32711071 -35.03733806 19.12588104 -36.90625 19.94140625 C-36.93203125 20.78703125 -36.9578125 21.63265625 -36.984375 22.50390625 C-37.4932602 32.68161034 -39.34035561 38.96205048 -46.64453125 46.11279297 C-51.12703173 49.7369217 -56.38033861 51.93359163 -61.59375 54.31640625 C-62.78242676 54.87295898 -63.97110352 55.42951172 -65.19580078 56.00292969 C-68.75713624 57.66842628 -72.33145501 59.30499608 -75.90625 60.94140625 C-77.92075283 61.87591435 -79.93508924 62.81078131 -81.94921875 63.74609375 C-83.72574777 64.56297211 -85.50304012 65.37819334 -87.28125 66.19140625 C-88.08780029 66.56185059 -88.89435059 66.93229492 -89.7253418 67.31396484 C-96.94430454 70.55608381 -104.23448835 72.43503743 -112.1015625 70.36328125 C-118.14397834 67.98096676 -122.58226106 64.03612708 -127.328125 59.671875 C-129.71557797 57.70760899 -129.71557797 57.70760899 -132.265625 58.0078125 C-133.13703125 58.31589844 -134.0084375 58.62398438 -134.90625 58.94140625 C-136.0921875 59.34875 -137.278125 59.75609375 -138.5 60.17578125 C-139.80390473 60.67626993 -141.10596355 61.18159097 -142.40625 61.69140625 C-143.05722656 61.93117188 -143.70820313 62.1709375 -144.37890625 62.41796875 C-149.93522387 64.59559626 -153.40056518 67.65691893 -156.71875 72.69140625 C-158.75448798 78.26289968 -158.85472301 83.44710144 -156.46875 88.94140625 C-154.07872447 93.21294123 -150.70420833 96.38142329 -147.1875 99.73828125 C-145.20394496 101.65390632 -143.38655979 103.59979483 -141.59375 105.69140625 C-138.52377397 109.26477327 -135.35720912 112.73584839 -132.15625 116.19140625 C-131.3823291 117.0270813 -131.3823291 117.0270813 -130.59277344 117.87963867 C-129.54320438 119.01276281 -128.49356234 120.14581936 -127.44384766 121.27880859 C-125.06916926 123.84653801 -122.70576855 126.42453445 -120.34375 129.00390625 C-119.89418945 129.4947168 -119.44462891 129.98552734 -118.98144531 130.49121094 C-118.07594207 131.47991907 -117.17050566 132.46868842 -116.26513672 133.45751953 C-113.97982504 135.95305032 -111.6929542 138.44715152 -109.40625 140.94140625 C-108.48957596 141.9413995 -107.5729093 142.94139949 -106.65625 143.94140625 C-105.975625 144.68390625 -105.975625 144.68390625 -105.28125 145.44140625 C-103.90625 146.94140625 -102.53125 148.44140625 -101.15625 149.94140625 C-100.70233887 150.43656738 -100.24842773 150.93172852 -99.78076172 151.44189453 C-98.86566367 152.44021286 -97.95062445 153.43858511 -97.03564453 154.43701172 C-94.72046148 156.96319045 -92.4042099 159.48837457 -90.0859375 162.01171875 C-85.85858249 166.6149039 -81.64098917 171.22554401 -77.46875 175.87890625 C-73.00981085 180.84653008 -68.48186669 185.74823877 -63.94921875 190.6484375 C-59.70834267 195.23407835 -55.49170151 199.84185542 -51.27392578 204.44873047 C-49.88045848 205.96955501 -48.48537249 207.48887949 -47.08984375 209.0078125 C-42.86101524 213.61214573 -38.64221914 218.2241722 -34.46875 222.87890625 C-30.00981085 227.84653008 -25.48186669 232.74823877 -20.94921875 237.6484375 C-16.70834267 242.23407835 -12.49170151 246.84185542 -8.27392578 251.44873047 C-6.88045848 252.96955501 -5.48537249 254.48887949 -4.08984375 256.0078125 C0.13898476 260.61214573 4.35778086 265.2241722 8.53125 269.87890625 C12.99018915 274.84653008 17.51813331 279.74823877 22.05078125 284.6484375 C26.29165733 289.23407835 30.50829849 293.84185542 34.72607422 298.44873047 C36.11954152 299.96955501 37.51462751 301.48887949 38.91015625 303.0078125 C43.13898476 307.61214573 47.35778086 312.2241722 51.53125 316.87890625 C55.99018915 321.84653008 60.51813331 326.74823877 65.05078125 331.6484375 C69.29165733 336.23407835 73.50829849 340.84185542 77.72607422 345.44873047 C79.11954152 346.96955501 80.51462751 348.48887949 81.91015625 350.0078125 C86.13898476 354.61214573 90.35778086 359.2241722 94.53125 363.87890625 C98.99018915 368.84653008 103.51813331 373.74823877 108.05078125 378.6484375 C112.29165733 383.23407835 116.50829849 387.84185542 120.72607422 392.44873047 C122.11954152 393.96955501 123.51462751 395.48887949 124.91015625 397.0078125 C129.13898476 401.61214573 133.35778086 406.2241722 137.53125 410.87890625 C141.10855566 414.86228445 144.7168025 418.81577588 148.34375 422.75390625 C149.08709595 423.56299438 149.08709595 423.56299438 149.84545898 424.38842773 C157.07891968 432.98283491 157.07891968 432.98283491 166.9609375 437.375 C167.95351563 437.37628906 168.94609375 437.37757813 169.96875 437.37890625 C170.95617187 437.39824219 171.94359375 437.41757812 172.9609375 437.4375 C178.73622981 436.5229587 182.50723478 434.05238829 185.9453125 429.46484375 C186.8836843 428.09142083 187.80751061 426.70797907 188.71875 425.31640625 C189.76176745 423.78169951 190.80608212 422.24787374 191.8515625 420.71484375 C192.38426758 419.92561523 192.91697266 419.13638672 193.46582031 418.32324219 C196.09745076 414.47288427 198.84739794 410.71034495 201.59375 406.94140625 C206.30389748 400.44518204 210.95312256 393.90913997 215.56762695 387.34472656 C219.26329345 382.09596762 223.01302594 376.88825777 226.78125 371.69140625 C231.1889078 365.60931653 235.52534084 359.49058506 239.76953125 353.29296875 C241.52486826 350.74186861 243.32341429 348.22505463 245.13671875 345.71484375 C256.12559572 331.62610442 256.12559572 331.62610442 259.5703125 314.671875 C258.18250297 306.72040891 253.91259609 301.27328863 248.1484375 295.87890625 C245.45479974 293.33889802 243.0264067 290.6349622 240.65625 287.79296875 C238.96124177 285.73156222 238.96124177 285.73156222 236.34375 283.19140625 C234.7478688 279.04211513 235.58849934 277.89734911 237.28125 273.87890625 C237.76980469 272.87730469 238.25835937 271.87570312 238.76171875 270.84375 C239.99530813 268.15589983 240.65074923 265.85026676 241.09375 262.94140625 C245.95701321 266.93883362 250.35637225 271.16487755 254.59375 275.81640625 C255.44718994 276.74428955 255.44718994 276.74428955 256.31787109 277.69091797 C259.6938874 281.37235115 263.02044932 285.09144004 266.27734375 288.87890625 C267.76745987 290.57090907 269.28023196 292.22915451 270.81640625 293.87890625 C271.3047998 294.40468262 271.79319336 294.93045898 272.29638672 295.47216797 C273.25667062 296.50318636 274.22032255 297.53108247 275.18798828 298.55517578 C282.63745067 306.56301229 285.76247138 313.60048512 285.515625 324.5234375 C284.20774159 335.11971512 276.68437067 343.41722136 270.37109375 351.6015625 C266.93059437 356.09529697 263.75512161 360.74887114 260.59375 365.44140625 C256.06638526 372.14306641 251.36700787 378.66249792 246.47045898 385.09814453 C242.58484481 390.22733444 238.92182647 395.48214618 235.3059082 400.80371094 C231.31546932 406.66157555 227.17956823 412.40610938 223.01342773 418.13989258 C219.72723677 422.66689298 216.47884417 427.21734212 213.26660156 431.79711914 C190.81462461 463.80712224 190.81462461 463.80712224 173.1171875 468.46875 C155.70729425 471.19045166 140.82763054 467.2342661 126.4296875 457.05859375 C121.80455611 453.49542606 117.8598061 449.7570605 114.13671875 445.2734375 C111.42930743 442.18295077 108.51804822 439.32538635 105.59375 436.44140625 C101.53855022 432.43288339 97.6539171 428.38270061 93.96484375 424.03125 C91.4499155 421.22230091 88.77539678 418.59032008 86.09375 415.94140625 C82.82992703 412.71742244 79.62544881 409.50622804 76.65625 406.00390625 C73.49365018 402.28182932 70.06404304 398.87274553 66.59375 395.44140625 C62.56076526 391.45364068 58.69972535 387.42645717 55.03125 383.09765625 C52.33344415 380.09525942 49.46331181 377.27879808 46.59375 374.44140625 C42.5607689 370.45363794 38.69972538 366.4264572 35.03125 362.09765625 C31.7900845 358.49055271 28.30112621 355.1296173 24.85375977 351.72094727 C21.38988554 348.28104104 18.12250066 344.75586775 14.96484375 341.03125 C12.4499155 338.22230091 9.77539678 335.59032008 7.09375 332.94140625 C3.82992703 329.71742244 0.62544881 326.50622804 -2.34375 323.00390625 C-5.50634982 319.28182932 -8.93595696 315.87274553 -12.40625 312.44140625 C-16.43923474 308.45364068 -20.30027465 304.42645717 -23.96875 300.09765625 C-27.2099155 296.49055271 -30.69887379 293.1296173 -34.14624023 289.72094727 C-37.61011446 286.28104104 -40.87749934 282.75586775 -44.03515625 279.03125 C-46.5500845 276.22230091 -49.22460322 273.59032008 -51.90625 270.94140625 C-55.17007297 267.71742244 -58.37455119 264.50622804 -61.34375 261.00390625 C-64.50634982 257.28182932 -67.93595696 253.87274553 -71.40625 250.44140625 C-75.43923474 246.45364068 -79.30027465 242.42645717 -82.96875 238.09765625 C-86.2099155 234.49055271 -89.69887379 231.1296173 -93.14624023 227.72094727 C-96.61011446 224.28104104 -99.87749934 220.75586775 -103.03515625 217.03125 C-105.5500845 214.22230091 -108.22460322 211.59032008 -110.90625 208.94140625 C-114.17007297 205.71742244 -117.37455119 202.50622804 -120.34375 199.00390625 C-123.50634982 195.28182932 -126.93595696 191.87274553 -130.40625 188.44140625 C-134.43923474 184.45364068 -138.30027465 180.42645717 -141.96875 176.09765625 C-145.2099155 172.49055271 -148.69887379 169.1296173 -152.14624023 165.72094727 C-155.61011446 162.28104104 -158.87749934 158.75586775 -162.03515625 155.03125 C-164.5500845 152.22230091 -167.22460322 149.59032008 -169.90625 146.94140625 C-173.17007297 143.71742244 -176.37455119 140.50622804 -179.34375 137.00390625 C-183.0691587 132.61456332 -187.17619358 128.61853618 -191.28881836 124.59594727 C-196.18810808 119.77301393 -199.99922089 115.64389939 -202.09375 108.94140625 C-202.41730469 107.93078125 -202.74085938 106.92015625 -203.07421875 105.87890625 C-206.3743893 94.2275999 -206.24428811 81.95011986 -200.90625 70.94140625 C-194.39945796 59.91265263 -183.89351048 54.46394255 -172.28125 50.03515625 C-171.1657074 49.59707642 -170.05016479 49.15899658 -168.90081787 48.7076416 C-165.87192696 47.52070503 -162.83882564 46.34543754 -159.80351257 45.17504883 C-156.58414024 43.93016652 -153.3709067 42.6696438 -150.15722656 41.41015625 C-145.46014058 39.57055465 -140.76147142 37.73511655 -136.06068802 35.90498352 C-123.79332902 31.12794467 -111.56070938 26.26427975 -99.32797241 21.39944458 C-95.6737686 19.94836287 -92.01756079 18.50245699 -88.3605957 17.05834961 C-78.56652696 13.18898536 -68.77473753 9.3197668 -59.03982544 5.30337524 C-55.52967293 3.85570538 -52.01355823 2.42286546 -48.49694824 0.9909668 C-46.19296438 0.04465636 -43.89995971 -0.92514656 -41.60644531 -1.89648438 C-27.07536971 -7.89483079 -13.98483417 -7.61404159 0 0 Z " fill="#404077" transform="translate(215.90625,43.05859375)"/>
<path d="M0 0 C4.39035039 3.27873027 8.20344404 7.06326352 12 11 C12.65226563 11.62132812 13.30453125 12.24265625 13.9765625 12.8828125 C30.0516516 29.25151053 34.4483855 54.00423279 34.36132812 75.94580078 C33.87216742 105.89845996 21.22574142 133.1286236 0 154 C-0.83402344 154.83273437 -1.66804687 155.66546875 -2.52734375 156.5234375 C-20.61640385 173.70364693 -43.27575747 181.70574547 -67.84619141 181.46826172 C-88.56460324 180.8667696 -104.74779721 172.64031119 -119 158 C-119.67675781 157.32066406 -120.35351562 156.64132812 -121.05078125 155.94140625 C-128.21805958 148.29736882 -132.80028414 139.22051863 -136.3125 129.4375 C-136.55492432 128.765979 -136.79734863 128.09445801 -137.04711914 127.40258789 C-143.79858968 107.55836804 -143.3272754 83.88849324 -137 64 C-136.68651611 62.98921387 -136.68651611 62.98921387 -136.36669922 61.95800781 C-131.50780714 46.72256043 -123.83966047 32.79661284 -113 21 C-112.55285645 20.51047852 -112.10571289 20.02095703 -111.64501953 19.51660156 C-83.14837316 -11.33764583 -36.945211 -23.88582323 0 0 Z " fill="#F9E16A" transform="translate(145,331)"/>
<path d="M0 0 C18.15663007 15.55277227 31.21180573 39.33810133 33.875 63.25 C34.92032046 77.66032575 34.68761986 91.53560616 29.875 105.25 C29.50117188 106.3328125 29.12734375 107.415625 28.7421875 108.53125 C22.19003405 125.71438091 9.70783151 138.68557255 -6.75 146.5625 C-14.44543496 149.95065403 -21.75020138 151.64250165 -30.125 152.25 C-30.79917969 152.30414063 -31.47335937 152.35828125 -32.16796875 152.4140625 C-54.64604524 153.34186303 -75.20186476 141.63923051 -91.4296875 127.19921875 C-109.15943844 110.42037141 -120.5531934 85.51199173 -121.4609375 61.171875 C-121.78824287 38.80600831 -117.84498415 17.16709717 -102.125 0.25 C-101.59519531 -0.37003906 -101.06539063 -0.99007813 -100.51953125 -1.62890625 C-73.08257014 -31.91118184 -28.28415399 -22.54172171 0 0 Z " fill="#F9E16A" transform="translate(474.125,28.75)"/>
<path d="M0 0 C1.12277344 0.55429687 2.24554688 1.10859375 3.40234375 1.6796875 C4.91382141 2.41195618 6.42555396 3.1436989 7.9375 3.875 C9.04061523 4.42220703 9.04061523 4.42220703 10.16601562 4.98046875 C15.35112623 7.47113323 20.33781832 8.99640573 26 10 C31.63606248 27.60475781 36.82309235 45.23047207 41.29492188 63.17382812 C41.89050762 65.56112057 42.49588397 67.94539019 43.109375 70.328125 C43.91335314 73.47813772 44.6974716 76.6318052 45.46240234 79.79150391 C45.85373513 81.39913167 46.25064605 83.00540469 46.65087891 84.61083984 C54.01510421 114.27468641 58.61107314 144.5208337 61.77996826 174.90264893 C62.00074753 177.00712545 62.22887283 179.11072078 62.45751953 181.21435547 C64.56380997 200.89633317 65.26818027 220.45714079 65.25 240.25 C65.24931519 241.30048523 65.24863037 242.35097046 65.2479248 243.43328857 C65.22272649 255.12461827 64.99356766 266.80142767 64.546875 278.484375 C64.5086261 279.50573547 64.4703772 280.52709595 64.43096924 281.57940674 C64.18583182 287.42813564 63.71595681 293.18979285 63 299 C60.36 299 57.72 299 55 299 C54.6596875 297.87207031 54.319375 296.74414062 53.96875 295.58203125 C38.45009197 244.8804754 13.28833491 198.51634116 -20.57324219 157.73095703 C-21.82857742 156.20797161 -23.06073088 154.66594085 -24.2890625 153.12109375 C-32.06867217 143.34559171 -40.64721397 134.09380341 -49.66796875 125.44921875 C-50.23153076 124.90579834 -50.79509277 124.36237793 -51.37573242 123.80249023 C-52.43361415 122.79135692 -53.50238798 121.7914596 -54.58325195 120.80493164 C-56 119.453125 -56 119.453125 -58 117 C-57.93359375 114.90625 -57.93359375 114.90625 -57 113 C-56.70222656 112.38640625 -56.40445313 111.7728125 -56.09765625 111.140625 C-55.75605469 110.51671875 -55.41445312 109.8928125 -55.0625 109.25 C-50.47721114 100.14611739 -49.39599867 89.99016487 -51.6875 80.00390625 C-53.66156085 74.2051025 -56.49768008 69.28527799 -60.0234375 64.2890625 C-61 62 -61 62 -60.45703125 59.54296875 C-58.72398125 56.51826219 -56.70725602 54.22161395 -54.3125 51.6875 C-53.48363281 50.80449219 -52.65476563 49.92148438 -51.80078125 49.01171875 C-51.35202637 48.53532959 -50.90327148 48.05894043 -50.44091797 47.56811523 C-48.86625498 45.85444862 -47.35484087 44.09472227 -45.83984375 42.328125 C-41.65053495 37.5199475 -37.1853031 32.99922783 -32.67675781 28.49145508 C-31.26080053 27.07331716 -29.85301711 25.64703335 -28.4453125 24.22070312 C-19.58314986 15.34002621 -9.9374855 7.63100738 0 0 Z " fill="#B3FEC5" transform="translate(283,44)"/>
<path d="M0 0 C2.51282955 2.51282955 3.20705232 4.78823409 4.4609375 8.1171875 C4.6927774 8.72958282 4.92461731 9.34197815 5.16348267 9.97293091 C5.65516767 11.27493559 6.14422396 12.57793552 6.63085938 13.88183594 C7.36004332 15.83493885 8.09718915 17.78487264 8.8359375 19.734375 C17 41.37076089 17 41.37076089 17 45 C10.53609024 44.53724282 5.76356879 42.82927325 0 39.9375 C-0.77472656 39.56044922 -1.54945313 39.18339844 -2.34765625 38.79492188 C-4.23685944 37.87364378 -6.11917947 36.93827297 -8 36 C-18.26487785 43.75006186 -27.77672459 52.03912218 -37 61 C-37.74926758 61.72735352 -38.49853516 62.45470703 -39.27050781 63.20410156 C-48.03373189 71.7499658 -56.56177423 80.25626081 -64 90 C-65.33048482 91.66894149 -66.66307859 93.33621014 -68 95 C-66.17977109 99.82040521 -63.84213878 104.34762789 -61.47851562 108.91601562 C-56.37491332 118.93901377 -56.80440697 129.99303437 -60.0625 140.66015625 C-60.93419668 142.83576589 -61.88836604 144.54161383 -63.25 146.4375 C-65.21180964 148.74331131 -65.21180964 148.74331131 -64.87353516 150.87988281 C-63.69481894 153.74069097 -61.99037542 155.32953491 -59.7734375 157.484375 C-58.90589844 158.33773437 -58.03835937 159.19109375 -57.14453125 160.0703125 C-56.23058594 160.95460937 -55.31664062 161.83890625 -54.375 162.75 C-48.33053563 168.6457583 -42.45283414 174.54997552 -37 181 C-36.12317035 182.00978764 -35.24561878 183.01894908 -34.3671875 184.02734375 C-26.89193762 192.75627974 -19.8546329 201.77687089 -13 211 C-12.50387207 211.66451172 -12.00774414 212.32902344 -11.49658203 213.01367188 C10.73575374 242.99352726 47 294.98382455 47 334 C49.31 334 51.62 334 54 334 C54.39918742 343.26016241 53.16446293 352.13645441 51.75 361.25 C51.52138211 362.75743448 51.29311406 364.26492206 51.06518555 365.77246094 C49.71987106 374.6097946 48.31472421 383.43792361 46.8125 392.25 C46.58095215 393.62140137 46.58095215 393.62140137 46.34472656 395.02050781 C45.55561724 399.50353888 44.58941434 403.71488292 43 408 C35.21811519 401.05765463 34.39148435 388.45844951 32.1875 378.6875 C17.16392874 312.35630022 -12.6362114 247.93938186 -58.77734375 197.4453125 C-60.20549416 195.87409606 -61.61608568 194.28663764 -63.00390625 192.6796875 C-74.86330523 179.04250385 -88.49779407 167.69283468 -103 157 C-112.1032658 150.25960373 -119.5982233 144.17526567 -121.38671875 132.46875 C-122.14427496 120.75188065 -115.60117593 112.18158579 -108.2409668 103.7878418 C-107.28228762 102.70761032 -106.32226279 101.62857145 -105.36083984 100.55078125 C-103.33254335 98.23938201 -101.42119972 95.83813736 -99.5 93.4375 C-95.37895307 88.37112331 -91.01112063 83.57630798 -86.57421875 78.7890625 C-82.78688852 74.68564249 -79.06916916 70.51803654 -75.5234375 66.203125 C-72.30489457 62.31333515 -68.85169247 59.0800883 -65.00390625 55.81640625 C-62.98767845 53.98883135 -61.25632755 52.07638724 -59.5 50 C-56.65451904 46.65576058 -53.63505514 43.80835271 -50.2890625 40.97265625 C-48.05277315 39.04547857 -45.88235703 37.05751807 -43.7199707 35.0480957 C-37.67885247 29.43814219 -31.45602383 24.13193315 -25 19 C-24.45053711 18.56155762 -23.90107422 18.12311523 -23.33496094 17.67138672 C-15.69401589 11.58124208 -7.9601492 5.66957565 0 0 Z " fill="#79E9B3" transform="translate(291,9)"/>
<path d="M0 0 C10.11661349 5.99368483 16.593923 15.0503216 19.9765625 26.2265625 C25.67780281 49.83076303 19.77853598 72.56408063 7.5859375 93.0625 C-2.28677205 108.71790599 -16.49340345 118.69383707 -33.5 125.375 C-44.96346063 127.42204654 -55.33457927 126.22912408 -65.1875 119.9375 C-75.00242559 112.58786184 -79.90773631 101.87465724 -82 90 C-83.29014655 71.65500575 -81.55061191 55.47617909 -73 39 C-72.55914062 38.09894531 -72.11828125 37.19789063 -71.6640625 36.26953125 C-62.48958198 18.30072825 -47.42379849 4.83196053 -28.5 -2.0859375 C-19.22958769 -4.507005 -8.74668837 -4.11790992 0 0 Z " fill="#EDD15A" transform="translate(102,348)"/>
<path d="M0 0 C1.22976563 0.34933594 2.45953125 0.69867188 3.7265625 1.05859375 C5.35932815 1.51839557 6.99214328 1.97802171 8.625 2.4375 C9.43324219 2.66759766 10.24148438 2.89769531 11.07421875 3.13476562 C15.3668174 4.3387872 19.57542207 5.37712252 24 6 C37.29413256 43.10388122 60.40146242 108.70914616 43.12060547 146.94580078 C33.21185904 167.68771023 19.20584576 187.65592631 3.44921875 204.375 C1.58634617 206.37157157 -0.18769206 208.38866217 -1.95703125 210.46484375 C-6.90448205 216.14132948 -12.24696201 221.43298829 -17.56933594 226.75463867 C-19.36944793 228.55694117 -21.161389 230.36710959 -22.953125 232.17773438 C-42.92139581 252.24854999 -42.92139581 252.24854999 -53.76098633 252.51831055 C-54.43798584 252.51226807 -55.11498535 252.50622559 -55.8125 252.5 C-56.86763794 252.49577026 -56.86763794 252.49577026 -57.9440918 252.49145508 C-63.99155361 252.3039747 -68.3377647 250.80481271 -73 247 C-73.59167969 246.59394531 -74.18335938 246.18789063 -74.79296875 245.76953125 C-76.74435426 242.90876221 -75.56345553 240.32608368 -75 237 C-74.79648926 235.75718262 -74.59297852 234.51436523 -74.38330078 233.23388672 C-74.15472923 231.88235859 -73.92536465 230.5309644 -73.6953125 229.1796875 C-73.44018782 227.66913517 -73.18522986 226.15855467 -72.93041992 224.64794922 C-72.73275528 223.47761139 -72.73275528 223.47761139 -72.53109741 222.28363037 C-69.71753568 205.60173128 -69.71753568 205.60173128 -67.1875 188.875 C-67.07615723 188.09753418 -66.96481445 187.32006836 -66.85009766 186.51904297 C-66.08826882 181.02636604 -65.52098884 175.52032584 -65 170 C-55.17565069 169.35928157 -46.48621926 172.63376629 -39 179 C-34 184.60747664 -34 184.60747664 -34 188 C-20.06507249 176.42264331 -8.07718697 162.98564894 3.02734375 148.7265625 C4.84097721 146.40722122 6.66260259 144.29796822 8.69140625 142.1484375 C11.09873081 139.45190813 12.72607199 137.38955845 14 134 C13.6129746 130.60236356 12.88839527 127.70994457 11.84960938 124.47387695 C8.01876747 112.42056796 8.34689423 98.42722603 14 87 C15.41467263 84.58803857 16.89213501 82.29703429 18.53515625 80.03515625 C19.01855469 79.36355469 19.50195312 78.69195312 20 78 C20.55179932 77.25975586 21.10359863 76.51951172 21.67211914 75.75683594 C23.41339922 72.14173487 22.85915134 70.65810307 21.7109375 66.85546875 C21.3514502 65.63625732 20.99196289 64.4170459 20.62158203 63.16088867 C20.20686673 61.83617129 19.79131769 60.51171467 19.375 59.1875 C18.95967256 57.81584431 18.54546548 56.44384894 18.13232422 55.0715332 C14.4177259 42.86381761 10.27826916 30.79394802 6.04177856 18.75898743 C3.85655869 12.55029332 1.80346194 6.33061384 0 0 Z " fill="#15D2AA" transform="translate(410,174)"/>
<path d="M0 0 C18.45411515 12.64348997 29.70342741 32.07032645 34 53.8515625 C36.06498534 68.71208197 34.58078379 83.71506656 25.4375 96 C20.05318445 103.05483396 12.63839208 107.01199747 3.86328125 108.41015625 C-11.38677681 108.97497322 -24.35786019 101.62108596 -35.25805664 91.54321289 C-40.81497402 86.0873805 -44.73463166 79.73421282 -48.5625 73 C-49.06523437 72.13503906 -49.56796875 71.27007812 -50.0859375 70.37890625 C-59.09660047 53.75013731 -60.85179053 34.52201821 -55.85546875 16.44140625 C-52.53707183 6.72865544 -45.67913964 -0.51589119 -36.60546875 -5.16015625 C-24.52956637 -10.12443734 -10.80389176 -6.34883869 0 0 Z " fill="#EDD15A" transform="translate(459.5625,39)"/>
<path d="M0 0 C13.1336681 1.81154043 23.87539651 9.77951626 33 19 C34.02673828 19.97646484 34.02673828 19.97646484 35.07421875 20.97265625 C51.6235172 37.84708827 56.45160511 62.19277538 56.36132812 84.94580078 C55.87216742 114.89845996 43.22574142 142.1286236 22 163 C21.16597656 163.83273437 20.33195312 164.66546875 19.47265625 165.5234375 C1.37837247 182.70860816 -21.26904488 190.69181865 -45.84179688 190.47045898 C-59.57699885 190.07859192 -71.47798532 186.5694789 -83 179 C-83.33 178.34 -83.66 177.68 -84 177 C-82.865625 177.165 -81.73125 177.33 -80.5625 177.5 C-54.12296654 180.3180067 -30.22980844 173.95290137 -9.04296875 157.53515625 C14.543128 137.88512186 28.77902488 110.55644906 32 80 C33.8050549 55.48836657 27.91425468 31.24105171 11.98828125 12.22265625 C9.11622675 9.01204916 6.11510841 5.9731541 3 3 C1.99769851 2.0023068 0.99700152 1.00298952 0 0 Z " fill="#EDD15A" transform="translate(123,322)"/>
<path d="M0 0 C-0.47308594 0.41507813 -0.94617188 0.83015625 -1.43359375 1.2578125 C-11.02619079 10.19594385 -17.80926465 21.62500501 -22 34 C-22.47759766 35.34771484 -22.47759766 35.34771484 -22.96484375 36.72265625 C-27.85378018 53.46219437 -26.5609209 73.58204304 -21 90 C-20.78037598 90.65000977 -20.56075195 91.30001953 -20.33447266 91.96972656 C-15.58091897 105.58110535 -8.57680828 117.21999339 1 128 C1.68707031 128.78246094 2.37414062 129.56492188 3.08203125 130.37109375 C15.83264386 144.02063637 35.49597652 154.58005189 54.2578125 155.24609375 C63.61217419 155.41939628 72.89797306 155.43882061 82 153 C78.33975209 157.0661645 74.70490988 159.46035851 69.6875 161.6875 C68.74874023 162.12932617 68.74874023 162.12932617 67.79101562 162.58007812 C60.4786639 165.91751045 52.99348438 167.42016176 45 168 C44.32582031 168.05414063 43.65164063 168.10828125 42.95703125 168.1640625 C20.47895476 169.09186303 -0.07686476 157.38923051 -16.3046875 142.94921875 C-34.03443844 126.17037141 -45.4281934 101.26199173 -46.3359375 76.921875 C-46.66324287 54.55600831 -42.71998415 32.91709717 -27 16 C-26.47019531 15.37996094 -25.94039063 14.75992187 -25.39453125 14.12109375 C-20.98589619 9.2552669 -6.62882811 -3.31441405 0 0 Z " fill="#ECD15A" transform="translate(399,13)"/>
<path d="M0 0 C10.79493949 6.40227054 18.39414199 18.43222433 25.7734375 28.30859375 C28.62889108 32.12701695 31.6397353 35.79652105 34.7734375 39.390625 C36.1771831 42.06335663 35.62691311 43.39376872 34.75 46.25 C33.53701628 49.56111772 32.22109702 52.82192138 30.90625 56.09375 C29.90219776 58.83454125 29.22156687 61.37772904 28.75 64.25 C28.09 64.25 27.43 64.25 26.75 64.25 C25.57666016 62.84472656 25.57666016 62.84472656 24.2890625 60.890625 C23.81726563 60.18679687 23.34546875 59.48296875 22.859375 58.7578125 C22.12460937 57.64019531 22.12460937 57.64019531 21.375 56.5 C17.08737334 49.95027248 17.08737334 49.95027248 11.75 44.25 C10.92757812 44.65992188 10.10515625 45.06984375 9.2578125 45.4921875 C-0.21683554 50.06540099 -7.76597224 52.2943267 -18.25 52.25 C-18.76385254 50.82905029 -18.76385254 50.82905029 -19.28808594 49.37939453 C-20.57610778 45.81904745 -21.86635379 42.25950962 -23.15722656 38.70019531 C-23.71250828 37.168184 -24.26721009 35.63596235 -24.82128906 34.10351562 C-25.62407414 31.88353956 -26.42893213 29.66432551 -27.234375 27.4453125 C-27.62405457 26.36724335 -27.62405457 26.36724335 -28.02160645 25.26739502 C-29.75174535 20.51356183 -31.61971678 15.84302477 -33.69238281 11.22607422 C-34.37102006 8.82113119 -34.16801439 7.55849122 -33.25 5.25 C-31.0703125 3.58203125 -31.0703125 3.58203125 -28.375 2.0625 C-27.49070312 1.55332031 -26.60640625 1.04414062 -25.6953125 0.51953125 C-18.33900436 -3.29963831 -7.60356387 -3.30589733 0 0 Z " fill="#15D2AA" transform="translate(326.25,1.75)"/>
<path d="M0 0 C4.86326321 3.99742737 9.26262225 8.2234713 13.5 12.875 C14.06895996 13.49358887 14.63791992 14.11217773 15.22412109 14.74951172 C18.6001374 18.4309449 21.92669932 22.15003379 25.18359375 25.9375 C26.67370987 27.62950282 28.18648196 29.28774826 29.72265625 30.9375 C30.2110498 31.46327637 30.69944336 31.98905273 31.20263672 32.53076172 C32.16292062 33.56178011 33.12657255 34.58967622 34.09423828 35.61376953 C41.54370067 43.62160604 44.66872138 50.65907887 44.421875 61.58203125 C42.72278905 75.34777388 30.42600764 87.53804315 22 98 C22 97.34 22 96.68 22 96 C21.15179688 95.74476563 20.30359375 95.48953125 19.4296875 95.2265625 C15.76247907 93.91505516 12.53425443 92.25356877 9.125 90.375 C7.39636719 89.42753906 7.39636719 89.42753906 5.6328125 88.4609375 C4.76398438 87.97882813 3.89515625 87.49671875 3 87 C3 83.56284041 3.53161704 82.91406879 5.51953125 80.234375 C6.31133789 79.14576172 6.31133789 79.14576172 7.11914062 78.03515625 C7.95735352 76.90400391 7.95735352 76.90400391 8.8125 75.75 C15.19295958 67.13750685 19.59317944 60.12161802 18 49 C15.86804352 42.30802548 12.11929439 37.67720758 7.0546875 32.9375 C4.36104974 30.39749177 1.9326567 27.69355595 -0.4375 24.8515625 C-2.13250823 22.79015597 -2.13250823 22.79015597 -4.75 20.25 C-6.3458812 16.10070888 -5.50525066 14.95594286 -3.8125 10.9375 C-3.32394531 9.93589844 -2.83539063 8.93429687 -2.33203125 7.90234375 C-1.09844187 5.21449358 -0.44300077 2.90886051 0 0 Z " fill="#52528C" transform="translate(457,306)"/>
<path d="M0 0 C24.88714868 24.74356898 24.88714868 24.74356898 25.625 36.5 C24.95059743 48.27737176 16.10677475 58.13083667 9 67 C8.01 67.495 8.01 67.495 7 68 C4.27362285 66.68752757 1.68539113 65.31105873 -0.9375 63.8125 C-2.11868408 63.14758545 -2.11868408 63.14758545 -3.32373047 62.46923828 C-12.41021692 57.2946159 -21.22058832 51.67560896 -30 46 C-27.74766398 41.91023196 -25.57293325 38.28117768 -22.5 34.75 C-13.79580672 24.1224082 -6.93536214 11.83270119 0 0 Z " fill="#B8ECFD" transform="translate(451,324)"/>
<path d="M0 0 C5.81755118 3.46537762 11.17901888 7.12005878 16.10131836 11.80224609 C14.51175552 15.61541087 12.09371139 18.17503009 9.22631836 21.11474609 C8.36264648 22.01837891 7.49897461 22.92201172 6.60913086 23.85302734 C4.10131836 25.80224609 4.10131836 25.80224609 2.13256836 25.77490234 C-0.44860586 24.538917 -2.99487911 23.26837883 -5.52368164 21.92724609 C-14.21236831 17.53539475 -23.44117251 13.63595797 -33.23852539 16.48193359 C-35.15149514 17.18795055 -37.0297697 17.98672088 -38.89868164 18.80224609 C-38.92446289 19.64787109 -38.95024414 20.49349609 -38.97680664 21.36474609 C-39.33671056 28.56282442 -40.14443137 33.62589888 -43.89868164 39.80224609 C-44.88868164 39.80224609 -45.87868164 39.80224609 -46.89868164 39.80224609 C-47.37289551 38.87887451 -47.84710938 37.95550293 -48.33569336 37.00415039 C-50.09689831 33.57596866 -51.86046976 30.14900903 -53.62475586 26.72241211 C-54.38777149 25.23967136 -55.15014642 23.75660073 -55.91186523 22.27319336 C-57.00734557 20.14007748 -58.1051305 18.00816164 -59.20336914 15.87646484 C-59.54302704 15.21386154 -59.88268494 14.55125824 -60.2326355 13.86857605 C-61.67626707 11.07124189 -63.15012436 8.42508202 -64.89868164 5.80224609 C-60.44879775 3.92115706 -55.98746887 2.07153542 -51.51367188 0.24804688 C-49.99857078 -0.37431572 -48.4867163 -1.00465153 -46.97851562 -1.64355469 C-30.20247512 -8.73704145 -16.29157235 -9.31460319 0 0 Z " fill="#52528C" transform="translate(217.898681640625,44.19775390625)"/>
<path d="M0 0 C7.13334874 3.41160157 7.13334874 3.41160157 10 6 C10 10 10 10 8.05859375 12.296875 C6.76115234 13.51117188 6.76115234 13.51117188 5.4375 14.75 C1.02547342 18.99565128 -3.03092722 23.3455655 -7 28 C-8.65547467 29.92169505 -10.31377864 31.84090833 -11.97338867 33.7590332 C-13.14037249 35.10787213 -14.3059454 36.45793327 -15.4699707 37.80932617 C-16.01097412 38.43556885 -16.55197754 39.06181152 -17.109375 39.70703125 C-17.59374023 40.2688208 -18.07810547 40.83061035 -18.57714844 41.40942383 C-19.99902216 42.99890689 -21.47782716 44.50683971 -23 46 C-26.60284854 40.89266525 -29.874675 35.63662239 -32.9375 30.1875 C-33.54464844 29.10855469 -34.15179688 28.02960938 -34.77734375 26.91796875 C-36 24 -36 24 -35.78515625 21.796875 C-35.0835181 20.19113596 -34.29692401 18.62314285 -33.5 17.0625 C-31.09780952 11.71909092 -31.25146384 5.76632604 -31 0 C-19.87429275 -5.89162748 -11.5816167 -4.54892415 0 0 Z " fill="#B8EBFC" transform="translate(209,63)"/>
</svg>
