<?xml version="1.0" encoding="UTF-8"?>
<svg version="1.1" xmlns="http://www.w3.org/2000/svg" width="150" height="150">
<path d="M0 0 C2.48652919 1.93227994 4.84557775 3.94206279 7.18359375 6.05078125 C7.86808594 6.64246094 8.55257812 7.23414062 9.2578125 7.84375 C21.50113317 19.12492366 30.05577429 36.16256128 31.4050293 52.77758789 C32.3234284 75.8354759 28.0351591 95.47555055 12.18359375 113.05078125 C11.29607422 114.07751953 11.29607422 114.07751953 10.390625 115.125 C-0.89054866 127.36832067 -17.92818628 135.92296179 -34.54321289 137.2722168 C-57.6011009 138.1906159 -77.24117555 133.9023466 -94.81640625 118.05078125 C-95.50089844 117.45910156 -96.18539062 116.86742187 -96.890625 116.2578125 C-109.13394567 104.97663884 -117.68858679 87.93900122 -119.0378418 71.32397461 C-119.9562409 48.2660866 -115.6679716 28.62601195 -99.81640625 11.05078125 C-99.22472656 10.36628906 -98.63304688 9.68179687 -98.0234375 8.9765625 C-73.11940191 -18.05148465 -29.52218663 -20.43213749 0 0 Z " fill="#C8E79B" transform="translate(118.81640625,12.94921875)"/>
<path d="M0 0 C2.48652919 1.93227994 4.84557775 3.94206279 7.18359375 6.05078125 C7.86808594 6.64246094 8.55257812 7.23414062 9.2578125 7.84375 C21.3300463 18.96728173 30.3770368 36.24398138 31.34057617 52.73803711 C31.37903283 55.53263615 31.35915271 58.31892646 31.30859375 61.11328125 C31.29957031 62.07427734 31.29054687 63.03527344 31.28125 64.02539062 C31.25794583 66.3674593 31.22523433 68.70897917 31.18359375 71.05078125 C28.38781766 67.66512713 25.93861002 64.21600876 23.62109375 60.48828125 C21.97930231 57.85190792 20.37041358 55.29207247 18.46875 52.8359375 C17.18359375 51.05078125 17.18359375 51.05078125 17.18359375 49.05078125 C11.24764783 51.42515962 9.60742759 56.55331981 7.18359375 62.05078125 C6.52359375 62.05078125 5.86359375 62.05078125 5.18359375 62.05078125 C3.66059852 64.98798633 2.38259073 67.96764615 1.18359375 71.05078125 C3.16359375 71.38078125 5.14359375 71.71078125 7.18359375 72.05078125 C8.01560928 83.28299094 2.45507882 93.00124291 -3.81640625 102.05078125 C-10.455847 109.72563318 -17.59345169 116.96832754 -27.81640625 119.05078125 C-30.75390625 119.17578125 -30.75390625 119.17578125 -32.81640625 119.05078125 C-33.18358288 111.58485635 -33.18358288 111.58485635 -31.44140625 109.05078125 C-29.81640625 108.05078125 -29.81640625 108.05078125 -27.81640625 108.05078125 C-27.63078125 106.10171875 -27.63078125 106.10171875 -27.44140625 104.11328125 C-27.2392364 102.42503175 -27.03080055 100.73752193 -26.81640625 99.05078125 C-26.74035156 98.34308594 -26.66429688 97.63539062 -26.5859375 96.90625 C-25.56042812 90.40331407 -22.24317786 85.47241157 -18.69140625 80.06640625 C-16.78766384 77.20802085 -16.78766384 77.20802085 -15.80078125 74.4609375 C-14.62756588 71.5884221 -13.05061519 69.6185629 -11.06640625 67.23828125 C-8.5028336 64.12305373 -6.00586682 60.99811289 -3.62890625 57.73828125 C-1.84932261 55.31688055 -0.20599222 53.46749674 1.99609375 51.36328125 C4.37547507 48.84793528 4.89223174 47.4500047 5.18359375 44.05078125 C4.09046875 43.45265625 2.99734375 42.85453125 1.87109375 42.23828125 C-0.08943491 41.16553916 -1.64012943 40.23405914 -3.19335938 38.61914062 C-4.90276184 36.96733535 -6.53227264 35.935623 -8.609375 34.7890625 C-9.32158203 34.39267578 -10.03378906 33.99628906 -10.76757812 33.58789062 C-11.87456055 32.98170898 -11.87456055 32.98170898 -13.00390625 32.36328125 C-13.75349609 31.94755859 -14.50308594 31.53183594 -15.27539062 31.10351562 C-17.11989091 30.081404 -18.96781935 29.06548315 -20.81640625 28.05078125 C-20.81640625 27.39078125 -20.81640625 26.73078125 -20.81640625 26.05078125 C-22.07453125 25.70015625 -23.33265625 25.34953125 -24.62890625 24.98828125 C-32.34096467 22.41759511 -38.83644472 17.64246493 -45.19140625 12.67578125 C-48.01116367 10.49424053 -50.15686291 9.27950271 -53.81640625 9.05078125 C-54.04328125 9.64890625 -54.27015625 10.24703125 -54.50390625 10.86328125 C-56.23293366 13.7449936 -57.73808353 14.72150553 -60.81640625 16.05078125 C-64.12890625 15.73828125 -64.12890625 15.73828125 -66.81640625 15.05078125 C-66.81640625 14.39078125 -66.81640625 13.73078125 -66.81640625 13.05078125 C-68.81595371 13.00823769 -70.81682261 13.00997342 -72.81640625 13.05078125 C-73.31140625 13.54578125 -73.31140625 13.54578125 -73.81640625 14.05078125 C-75.4825774 14.09141957 -77.1502872 14.09350225 -78.81640625 14.05078125 C-78.81640625 14.71078125 -78.81640625 15.37078125 -78.81640625 16.05078125 C-79.47640625 16.05078125 -80.13640625 16.05078125 -80.81640625 16.05078125 C-81.31140625 17.53578125 -81.31140625 17.53578125 -81.81640625 19.05078125 C-82.80640625 19.38078125 -83.79640625 19.71078125 -84.81640625 20.05078125 C-85.14640625 21.04078125 -85.47640625 22.03078125 -85.81640625 23.05078125 C-86.47640625 23.71078125 -87.13640625 24.37078125 -87.81640625 25.05078125 C-88.80640625 25.05078125 -89.79640625 25.05078125 -90.81640625 25.05078125 C-91.14640625 26.37078125 -91.47640625 27.69078125 -91.81640625 29.05078125 C-93.79640625 29.54578125 -93.79640625 29.54578125 -95.81640625 30.05078125 C-95.48640625 30.71078125 -95.15640625 31.37078125 -94.81640625 32.05078125 C-95.86844446 37.40661211 -97.59261291 42.24725284 -99.71875 47.265625 C-100.08097656 48.18472656 -100.44320312 49.10382812 -100.81640625 50.05078125 C-101.07591064 50.68757813 -101.33541504 51.324375 -101.6027832 51.98046875 C-103.90854279 58.120041 -104.24035472 63.65827498 -104.12890625 70.17578125 C-104.13212891 71.12582031 -104.13535156 72.07585937 -104.13867188 73.0546875 C-104.0711998 81.8996634 -101.70084721 88.61060853 -97.83984375 96.5 C-96.81640625 99.05078125 -96.81640625 99.05078125 -96.81640625 103.05078125 C-96.15640625 103.05078125 -95.49640625 103.05078125 -94.81640625 103.05078125 C-93.54979863 104.69499256 -92.35335079 106.39351075 -91.19140625 108.11328125 C-82.05967112 120.96046015 -70.45944449 126.1697685 -55.81640625 131.05078125 C-40.78336943 132.38618348 -26.55033714 131.62962227 -12.81640625 125.05078125 C-11.03573786 123.56436948 -11.03573786 123.56436948 -9.81640625 122.05078125 C-8.92953125 121.47328125 -8.04265625 120.89578125 -7.12890625 120.30078125 C5.55422007 111.89742908 17.31272586 96.4829873 21.05859375 81.56640625 C21.53863029 78.72619004 21.93033958 75.91927235 22.18359375 73.05078125 C25.15359375 73.05078125 28.12359375 73.05078125 31.18359375 73.05078125 C27.9748748 88.39682842 22.87462282 101.19723251 12.18359375 113.05078125 C11.29607422 114.07751953 11.29607422 114.07751953 10.390625 115.125 C-0.89054866 127.36832067 -17.92818628 135.92296179 -34.54321289 137.2722168 C-57.6011009 138.1906159 -77.24117555 133.9023466 -94.81640625 118.05078125 C-95.50089844 117.45910156 -96.18539062 116.86742187 -96.890625 116.2578125 C-109.13394567 104.97663884 -117.68858679 87.93900122 -119.0378418 71.32397461 C-119.9562409 48.2660866 -115.6679716 28.62601195 -99.81640625 11.05078125 C-99.22472656 10.36628906 -98.63304688 9.68179687 -98.0234375 8.9765625 C-73.11940191 -18.05148465 -29.52218663 -20.43213749 0 0 Z " fill="#FCFDFC" transform="translate(118.81640625,12.94921875)"/>
<path d="M0 0 C1.2065625 0.0309375 1.2065625 0.0309375 2.4375 0.0625 C2.4375 0.7225 2.4375 1.3825 2.4375 2.0625 C3.13359375 2.32933594 3.8296875 2.59617188 4.546875 2.87109375 C14.0632765 6.79339437 23.1593319 11.92230658 32.22363281 16.78417969 C35.50192814 18.53691675 38.78151039 20.25118672 42.1484375 21.828125 C43.77652344 22.59382813 43.77652344 22.59382813 45.4375 23.375 C46.38625 23.80425781 47.335 24.23351562 48.3125 24.67578125 C50.4375 26.0625 50.4375 26.0625 51.421875 27.75390625 C51.44624671 31.35482593 50.0335213 34.40888849 48.6875 37.6875 C47.57116808 40.46749163 46.48636704 43.2563152 45.4375 46.0625 C45.15229492 46.81362061 44.86708984 47.56474121 44.57324219 48.33862305 C42.13297177 55.45173631 42.0551139 62.15759649 42.1875 69.625 C42.19523437 71.37586914 42.19523437 71.37586914 42.203125 73.16210938 C42.26056773 79.53466247 42.60145059 85.7449331 43.4375 92.0625 C31.45137713 95.34435561 17.43898508 93.56476012 6.6953125 87.51953125 C-3.02654406 81.06291831 -11.01759226 73.07902925 -14.90625 61.94140625 C-15.43859593 60.41724916 -16.05153721 58.92141318 -16.6875 57.4375 C-21.1451259 45.3382297 -19.03580179 32.90863239 -15 21.125 C-14.67781494 20.1666626 -14.35562988 19.2083252 -14.02368164 18.22094727 C-11.88944828 12.38311673 -7.19744783 0.17554751 0 0 Z " fill="#7DB33B" transform="translate(41.5625,38.9375)"/>
<path d="M0 0 C0.99 0.33 1.98 0.66 3 1 C2.21496094 1.67804687 1.42992188 2.35609375 0.62109375 3.0546875 C-11.1131239 13.36487682 -20.74987087 25.3107302 -21.9453125 41.6953125 C-21.96335937 42.45585938 -21.98140625 43.21640625 -22 44 C-22.05800781 45.79050781 -22.05800781 45.79050781 -22.1171875 47.6171875 C-22.50358876 64.97391435 -19.52831618 78.92097898 -7.31298828 91.90209961 C0.83489654 100.11447594 10.82104452 105.0146148 22.47265625 105.328125 C24.33609019 105.31767828 26.19949993 105.29154425 28.0625 105.25 C29.4556543 105.24226563 29.4556543 105.24226563 30.87695312 105.234375 C36.64844754 105.16957226 42.27494872 104.72661859 48 104 C48 103.34 48 102.68 48 102 C49.134375 101.649375 50.26875 101.29875 51.4375 100.9375 C56.74904372 98.93863284 60.74427132 95.68727395 65 92 C65.63164063 91.46375 66.26328125 90.9275 66.9140625 90.375 C76.16597925 81.89747276 82.07964891 68.42473977 83 56 C80.69 56 78.38 56 76 56 C77.50239966 52.38058265 78.82145293 49.2678206 81 46 C81.66 46 82.32 46 83 46 C83.37125 44.700625 83.37125 44.700625 83.75 43.375 C85.09135258 39.75334802 86.60552428 37.02830753 89 34 C91.1328125 33.33203125 91.1328125 33.33203125 93 33 C96.57440391 38.23975119 100.02161065 43.55423029 103.375 48.9375 C104.06335938 50.03964844 104.75171875 51.14179687 105.4609375 52.27734375 C107 55 107 55 107 57 C104.03 57 101.06 57 98 57 C98.020625 57.69222656 98.04125 58.38445312 98.0625 59.09765625 C97.73367708 74.69619334 87.06637359 88.63487183 76.57421875 99.515625 C72.55014649 103.27593454 69.38221057 105.51989209 64 107 C63.505 108.485 63.505 108.485 63 110 C60.234375 111.09765625 60.234375 111.09765625 56.75 112.0625 C52.11777934 113.33814282 52.11777934 113.33814282 47.63549805 115.03710938 C36.25424618 119.19529903 19.6909993 117.05533089 8.76953125 112.38671875 C7.85558594 111.92910156 6.94164062 111.47148437 6 111 C4.98035156 110.51402344 3.96070313 110.02804688 2.91015625 109.52734375 C-6.16974052 104.76192142 -15.55445374 96.86915262 -19 87 C-19.66 87 -20.32 87 -21 87 C-21.25394531 86.34773438 -21.50789063 85.69546875 -21.76953125 85.0234375 C-23.28448626 81.1764731 -24.78053632 77.4226708 -26.6875 73.75 C-32.04674994 62.52109535 -30.37772396 44.9268386 -26.5625 33.4375 C-21.63967303 19.7618083 -12.43747074 7.65382815 0 0 Z " fill="#0686C4" transform="translate(43,29)"/>
<path d="M0 0 C2.31 0 4.62 0 7 0 C7 0.66 7 1.32 7 2 C7.639375 2.20625 8.27875 2.4125 8.9375 2.625 C11 4 11 4 11.75 7.125 C11.8325 8.07375 11.915 9.0225 12 10 C14.64 10 17.28 10 20 10 C20 10.66 20 11.32 20 12 C20.99 12 21.98 12 23 12 C23.495 15.465 23.495 15.465 24 19 C21.20127563 16.47211993 19.54226981 14.79588866 19 11 C13.06405408 13.37437837 11.42383384 18.50253856 9 24 C8.34 24 7.68 24 7 24 C5.47700477 26.93720508 4.19899698 29.9168649 3 33 C5.97 33.495 5.97 33.495 9 34 C9.83201553 45.23220969 4.27148507 54.95046166 -2 64 C-8.63944075 71.67485193 -15.77704544 78.91754629 -26 81 C-28.9375 81.125 -28.9375 81.125 -31 81 C-31.36717663 73.5340751 -31.36717663 73.5340751 -29.625 71 C-28 70 -28 70 -26 70 C-25.87625 68.700625 -25.7525 67.40125 -25.625 66.0625 C-25.42283015 64.3742505 -25.2143943 62.68674068 -25 61 C-24.92394531 60.29230469 -24.84789063 59.58460937 -24.76953125 58.85546875 C-23.74402187 52.35253282 -20.42677161 47.42163032 -16.875 42.015625 C-14.97125759 39.1572396 -14.97125759 39.1572396 -13.984375 36.41015625 C-12.81115963 33.53764085 -11.23420894 31.56778165 -9.25 29.1875 C-6.68642735 26.07227248 -4.18946057 22.94733164 -1.8125 19.6875 C-0.03291636 17.2660993 1.61041403 15.41671549 3.8125 13.3125 C6.19188132 10.79715403 6.70863799 9.39922345 7 6 C4.69 4.68 2.38 3.36 0 2 C0 1.34 0 0.68 0 0 Z " fill="#FBFCF9" transform="translate(117,51)"/>
<path d="M0 0 C2.97 0 5.94 0 9 0 C5.79128105 15.34604717 0.69102907 28.14645126 -10 40 C-10.59167969 40.68449219 -11.18335938 41.36898437 -11.79296875 42.07421875 C-23.07414241 54.31753942 -40.11178003 62.87218054 -56.72680664 64.22143555 C-79.81562545 65.14106663 -99.37228857 60.84308775 -117 45 C-119 43 -119 43 -119.1875 40.1875 C-119.02065367 37.35111242 -118.64955894 34.76062551 -118 32 C-118.99 32 -119.98 32 -121 32 C-121 30.68 -121 29.36 -121 28 C-121.66 28 -122.32 28 -123 28 C-123 25.36 -123 22.72 -123 20 C-119.70320317 23.29679683 -119 25.28312744 -119 30 C-118.34 30 -117.68 30 -117 30 C-115.73339238 31.64421131 -114.53694454 33.3427295 -113.375 35.0625 C-104.24326487 47.9096789 -92.64303824 53.11898725 -78 58 C-62.96696318 59.33540223 -48.73393089 58.57884102 -35 52 C-33.21933161 50.51358823 -33.21933161 50.51358823 -32 49 C-30.6696875 48.13375 -30.6696875 48.13375 -29.3125 47.25 C-16.62937368 38.84664783 -4.87086789 23.43220605 -1.125 8.515625 C-0.64496346 5.67540879 -0.25325417 2.8684911 0 0 Z " fill="#F3FBF9" transform="translate(141,86)"/>
<path d="M0 0 C6.1319912 0.1304679 9.07957881 2.29640825 13.73828125 6.15625 C19.02902266 10.46925509 24.68878523 13.47551409 31 16 C31.66 16.33 32.32 16.66 33 17 C33 17.66 33 18.32 33 19 C33.78375 19.20625 34.5675 19.4125 35.375 19.625 C42.20121308 22.21425324 47.87476337 25.83326348 53 31 C54.87319986 32.27411836 54.87319986 32.27411836 56.75 33.25 C57.8225 33.8275 58.895 34.405 60 35 C58.86188466 40.18474764 56.65320441 42.52410044 52.93359375 46.01171875 C50.08128624 48.94469759 47.91327863 52.26353037 45.6328125 55.6484375 C44.26056213 57.62474067 42.84893858 59.39707177 41.25 61.1875 C39.19953865 63.75057669 38.05516117 65.97752658 36.87890625 69.015625 C35.78545649 71.48439156 34.41693175 73.70227283 33 76 C30.59714831 79.90911693 28.6705075 83.73092527 27 88 C26.67 88 26.34 88 26 88 C26.23427588 82.17824439 26.6799321 77.89050618 29.96484375 72.91015625 C31.26818545 70.50512195 31.80459876 68.15818519 32.4375 65.5 C33.54097985 61.08005065 34.97678869 58.20967337 37.8046875 54.6875 C39.53888605 52.23921969 40.35526828 49.60790207 41.3125 46.78515625 C42.17706797 44.54022691 43.52151097 42.8817133 45 41 C45.70514846 38.85266073 45.70514846 38.85266073 46 37 C45.27296875 36.88527344 44.5459375 36.77054688 43.796875 36.65234375 C40.91922709 35.98116051 38.81397584 35.01226486 36.25 33.5625 C35.47140625 33.13066406 34.6928125 32.69882812 33.890625 32.25390625 C32 31 32 31 31 29 C29.35245281 28.28183841 27.70193943 27.56971084 26.03710938 26.89257812 C22.43799339 25.3155925 19.11718711 23.26548613 15.75 21.25 C15.01144775 20.81187988 14.27289551 20.37375977 13.51196289 19.92236328 C7.5987142 16.39823445 1.76595569 12.76094734 -4 9 C-3.23596585 5.52846619 -1.91813089 3.00229182 0 0 Z " fill="#9FC649" transform="translate(65,22)"/>
<path d="M0 0 C0.99 0 1.98 0 3 0 C4.32421875 1.51171875 4.32421875 1.51171875 5.6875 3.6875 C6.19925781 4.49703125 6.71101563 5.3065625 7.23828125 6.140625 C7.81964844 7.08421875 8.40101563 8.0278125 9 9 C9.72175579 10.141195 10.44445545 11.28179344 11.16796875 12.421875 C17 21.69584497 17 21.69584497 17 24 C14.03 24 11.06 24 8 24 C7.98582031 24.7734375 7.97164062 25.546875 7.95703125 26.34375 C7.63508844 33.37428481 6.7671314 38.62664379 2 44 C1.01 44.66 0.02 45.32 -1 46 C-1.33 46.99 -1.66 47.98 -2 49 C-2.66 49 -3.32 49 -4 49 C-4 49.66 -4 50.32 -4 51 C-4.66 51 -5.32 51 -6 51 C-5.938125 51.78375 -5.87625 52.5675 -5.8125 53.375 C-5.9053125 54.674375 -5.9053125 54.674375 -6 56 C-6.99 56.66 -7.98 57.32 -9 58 C-9.33 58.99 -9.66 59.98 -10 61 C-12.58072903 63.32265612 -13.45176068 64 -17 64 C-16.67 64.99 -16.34 65.98 -16 67 C-17.32 67 -18.64 67 -20 67 C-20 67.66 -20 68.32 -20 69 C-20.99 69 -21.98 69 -23 69 C-23.33 69.99 -23.66 70.98 -24 72 C-24.99 71.67 -25.98 71.34 -27 71 C-27.6875 68.9375 -27.6875 68.9375 -28 67 C-27.01 67 -26.02 67 -25 67 C-24.731875 66.401875 -24.46375 65.80375 -24.1875 65.1875 C-23.00101202 63.00186425 -21.7416583 61.7416583 -20 60 C-18.40488945 57.46658912 -17.87528845 55.40762014 -17.25 52.4375 C-16.14487167 47.66940601 -13.78702489 43.76713406 -11.39453125 39.53515625 C-8.42346638 34.1339767 -7.62452499 29.03707494 -7 23 C-9.31 23 -11.62 23 -14 23 C-12.49760034 19.38058265 -11.17854707 16.2678206 -9 13 C-8.34 13 -7.68 13 -7 13 C-6.7525 12.13375 -6.505 11.2675 -6.25 10.375 C-4.81906411 6.5114731 -2.94650436 2.94650436 0 0 Z " fill="#10ADE4" transform="translate(133,62)"/>
<path d="M0 0 C2.95858818 1.44868301 5.68097041 3.20145175 8.4375 5 C10.03359165 6.01028856 11.63128022 7.01805818 13.23046875 8.0234375 C14.02888184 8.52713867 14.82729492 9.03083984 15.64990234 9.54980469 C19.12029852 11.69131241 22.67630826 13.6624817 26.25 15.625 C33.72174127 19.75232754 40.88105396 24.2948216 48 29 C47.44097068 33.11916341 46.12327626 35.61550168 43.75 39 C39.7889244 45.03861933 37.37518181 51.20931628 35 58 C34.55527344 59.2065625 34.11054687 60.413125 33.65234375 61.65625 C31.43038117 67.7196814 29.38802467 73.69079694 28 80 C27.67 80 27.34 80 27 80 C27.0344665 66.04106723 28.53975711 50.4907953 35.09204102 37.90185547 C36.21541411 35.90002857 36.21541411 35.90002857 36 33 C35.25314941 32.61666504 34.50629883 32.23333008 33.73681641 31.83837891 C30.96586789 30.41384985 28.19670646 28.98592148 25.42871094 27.55566406 C24.23052317 26.93743291 23.03163343 26.32056029 21.83203125 25.70507812 C20.10753221 24.81998756 18.38575785 23.92959458 16.6640625 23.0390625 C15.62717285 22.50490723 14.5902832 21.97075195 13.52197266 21.42041016 C11 20 11 20 9 18 C7.88625 17.525625 6.7725 17.05125 5.625 16.5625 C2.5815628 15.25067362 0.58762855 13.96302856 -2 12 C-4.14733927 11.29485154 -4.14733927 11.29485154 -6 11 C-6 10.34 -6 9.68 -6 9 C-8.97 8.505 -8.97 8.505 -12 8 C-12.33 6.35 -12.66 4.7 -13 3 C-8.2112492 -0.8543604 -5.94841449 -1.45663019 0 0 Z " fill="#9CC449" transform="translate(59,32)"/>
<path d="M0 0 C-0.33 0.99 -0.66 1.98 -1 3 C1.31 3 3.62 3 6 3 C6 3.66 6 4.32 6 5 C4.948125 4.896875 3.89625 4.79375 2.8125 4.6875 C-1.93565008 5.07669263 -2.93764654 6.51231967 -6 10 C-6.99 10.33 -7.98 10.66 -9 11 C-9 11.66 -9 12.32 -9 13 C-10.98 13 -12.96 13 -15 13 C-15.17438599 13.89162842 -15.17438599 13.89162842 -15.35229492 14.80126953 C-16 17 -16 17 -18.36328125 20.1796875 C-21.35014461 24.20728103 -22.74604222 28.36226553 -24.1875 33.125 C-24.67976785 34.69048887 -25.1732254 36.25560421 -25.66796875 37.8203125 C-25.89436035 38.5537085 -26.12075195 39.28710449 -26.35400391 40.04272461 C-27 42 -27 42 -28.16015625 44.57421875 C-29.32343895 47.93421205 -29.29773307 51.17559129 -29.25 54.6875 C-29.24395752 55.39430908 -29.23791504 56.10111816 -29.23168945 56.8293457 C-29.08669535 64.52985066 -28.45316238 71.50580487 -24 78 C-23.731875 78.763125 -23.46375 79.52625 -23.1875 80.3125 C-18.96997152 89.85743286 -9.64227897 99.03278928 0 103 C9.35832105 106.33883833 18.11349915 107.69949845 28 108 C28 108.66 28 109.32 28 110 C24.7085089 110.08857863 21.41733195 110.1409104 18.125 110.1875 C17.2071875 110.21263672 16.289375 110.23777344 15.34375 110.26367188 C2.36089328 110.40081473 -8.1647281 105.7811504 -17.625 96.9375 C-30.13419926 83.8061736 -33.41099295 69.52969142 -33.15234375 51.8984375 C-32.96241538 47.03821911 -32.31328074 42.6719585 -31 38 C-30.75507813 37.04738281 -30.51015625 36.09476563 -30.2578125 35.11328125 C-26.74460463 22.97250538 -18.55831216 12.03887477 -8 5 C-16.97111515 7.94161566 -24.07680906 16.19080058 -29 24 C-29.144375 23.401875 -29.28875 22.80375 -29.4375 22.1875 C-29.8872439 20.43849596 -30.42892341 18.71322977 -31 17 C-29.35 16.67 -27.7 16.34 -26 16 C-25.67 15.01 -25.34 14.02 -25 13 C-24.34 12.34 -23.68 11.68 -23 11 C-22.01 11 -21.02 11 -20 11 C-19.896875 10.360625 -19.79375 9.72125 -19.6875 9.0625 C-19.3471875 8.0415625 -19.3471875 8.0415625 -19 7 C-18.01 6.67 -17.02 6.34 -16 6 C-15.67 5.34 -15.34 4.68 -15 4 C-14.34 4 -13.68 4 -13 4 C-13 3.34 -13 2.68 -13 2 C-8.49646738 0.24252386 -4.82360189 -0.19294408 0 0 Z " fill="#CAECDF" transform="translate(53,25)"/>
<path d="M0 0 C2.31 0 4.62 0 7 0 C7 0.66 7 1.32 7 2 C7.639375 2.20625 8.27875 2.4125 8.9375 2.625 C11 4 11 4 11.75 7.125 C11.8325 8.07375 11.915 9.0225 12 10 C14.64 10 17.28 10 20 10 C20 10.66 20 11.32 20 12 C20.99 12 21.98 12 23 12 C23.495 15.465 23.495 15.465 24 19 C21.20127563 16.47211993 19.54226981 14.79588866 19 11 C13.06405408 13.37437837 11.42383384 18.50253856 9 24 C8.34 24 7.68 24 7 24 C5.47700477 26.93720508 4.19899698 29.9168649 3 33 C5.97 33.495 5.97 33.495 9 34 C9.83201553 45.23220969 4.27148507 54.95046166 -2 64 C-8.63944075 71.67485193 -15.77704544 78.91754629 -26 81 C-28.9375 81.125 -28.9375 81.125 -31 81 C-31 78.36 -31 75.72 -31 73 C-30.01 72.505 -30.01 72.505 -29 72 C-29.33 74.64 -29.66 77.28 -30 80 C-27.03 79.505 -27.03 79.505 -24 79 C-24 78.34 -24 77.68 -24 77 C-22.68 77 -21.36 77 -20 77 C-20 76.01 -20 75.02 -20 74 C-16.535 73.505 -16.535 73.505 -13 73 C-13 72.01 -13 71.02 -13 70 C-12.01 70 -11.02 70 -10 70 C-10 69.01 -10 68.02 -10 67 C-9.34 67 -8.68 67 -8 67 C-8 66.34 -8 65.68 -8 65 C-7.01 64.34 -6.02 63.68 -5 63 C-4.484375 62.13375 -3.96875 61.2675 -3.4375 60.375 C-2.963125 59.59125 -2.48875 58.8075 -2 58 C-1.34 58 -0.68 58 0 58 C-0.0928125 56.8553125 -0.0928125 56.8553125 -0.1875 55.6875 C0 53 0 53 1.375 51.1875 C3 50 3 50 5 50 C5.33 46.04 5.66 42.08 6 38 C3.03 37.505 3.03 37.505 0 37 C0 34.36 0 31.72 0 29 C0.66 29 1.32 29 2 29 C1.505 27.02 1.505 27.02 1 25 C0.071875 25.61875 -0.85625 26.2375 -1.8125 26.875 C-3.875 28.25 -5.9375 29.625 -8 31 C-8.67441131 32.6635479 -9.3400321 34.33066942 -10 36 C-11.31866272 37.678298 -12.65080468 39.34614767 -14 41 C-14.33 41.99 -14.66 42.98 -15 44 C-15.66 44 -16.32 44 -17 44 C-17 44.99 -17 45.98 -17 47 C-17.66 47 -18.32 47 -19 47 C-16.05142897 39.13714392 -12.38512731 32.93755637 -7.01953125 26.45703125 C-5.20368332 24.24780814 -3.49627817 21.99780028 -1.8125 19.6875 C-0.03291636 17.2660993 1.61041403 15.41671549 3.8125 13.3125 C6.19188132 10.79715403 6.70863799 9.39922345 7 6 C4.69 4.68 2.38 3.36 0 2 C0 1.34 0 0.68 0 0 Z " fill="#F4FCF2" transform="translate(117,51)"/>
<path d="M0 0 C1.32 0 2.64 0 4 0 C4.061875 0.763125 4.12375 1.52625 4.1875 2.3125 C4.76935262 5.23051809 4.76935262 5.23051809 7.5625 6.8125 C8.366875 7.204375 9.17125 7.59625 10 8 C9.67 9.65 9.34 11.3 9 13 C3.125 12.125 3.125 12.125 2 11 C0.33382885 10.95936168 -1.33388095 10.957279 -3 11 C-2.96219702 13.37233611 -2.96219702 13.37233611 -2 16 C0.85251385 18.17946646 0.85251385 18.17946646 4 20 C5.875 21.3125 5.875 21.3125 7 23 C7.5 26.375 7.5 26.375 7 30 C3.89381542 34.11112665 0.96853587 35.78546901 -4 37 C-4.66 37 -5.32 37 -6 37 C-6 37.99 -6 38.98 -6 40 C-7.32 40 -8.64 40 -10 40 C-10.061875 39.21625 -10.12375 38.4325 -10.1875 37.625 C-10.455625 36.75875 -10.72375 35.8925 -11 35 C-12.65204456 34.29788106 -14.31923769 33.63028587 -16 33 C-16.875 31 -16.875 31 -17 29 C-16.67 28.34 -16.34 27.68 -16 27 C-9.125 27.875 -9.125 27.875 -8 29 C-6.33382885 29.04063832 -4.66611905 29.042721 -3 29 C-3.33276676 25.95310436 -3.58510686 24.40595148 -5.8125 22.2265625 C-6.534375 21.69804688 -7.25625 21.16953125 -8 20.625 C-11.0410786 18.10899972 -11.91824455 17.23709081 -13.25 13.375 C-13 10 -13 10 -11.5625 7.1875 C-9.00415285 5.00354512 -7.96438034 4.57226849 -4.8125 3.875 C-2.9253125 3.441875 -2.9253125 3.441875 -1 3 C-0.67 2.01 -0.34 1.02 0 0 Z " fill="#F1F8E3" transform="translate(58,67)"/>
<path d="M0 0 C0.763125 0.66 1.52625 1.32 2.3125 2 C4.84277939 4.29850538 4.84277939 4.29850538 8 4 C7.91320858 6.46008778 7.80639045 8.91643517 7.6875 11.375 C7.66494141 12.07367188 7.64238281 12.77234375 7.61914062 13.4921875 C7.51171875 15.5234375 7.51171875 15.5234375 7 19 C6.01 19.66 5.02 20.32 4 21 C3.67 21.99 3.34 22.98 3 24 C2.34 24 1.68 24 1 24 C1 24.66 1 25.32 1 26 C0.34 26 -0.32 26 -1 26 C-0.938125 26.78375 -0.87625 27.5675 -0.8125 28.375 C-0.9053125 29.674375 -0.9053125 29.674375 -1 31 C-1.99 31.66 -2.98 32.32 -4 33 C-4.33 33.99 -4.66 34.98 -5 36 C-7.58072903 38.32265612 -8.45176068 39 -12 39 C-11.67 39.99 -11.34 40.98 -11 42 C-12.32 42 -13.64 42 -15 42 C-15 42.66 -15 43.32 -15 44 C-15.99 44 -16.98 44 -18 44 C-18.33 44.99 -18.66 45.98 -19 47 C-19.99 46.67 -20.98 46.34 -22 46 C-22.6875 43.9375 -22.6875 43.9375 -23 42 C-22.01 42 -21.02 42 -20 42 C-19.731875 41.401875 -19.46375 40.80375 -19.1875 40.1875 C-18 38 -18 38 -16.51171875 36.60546875 C-14.81139033 34.79969361 -14.33099588 33.48137587 -13.625 31.125 C-12.55275818 28.01549871 -11.95374556 26.95490192 -9.5 24.5625 C-6.08356888 21.06065811 -5.30435913 17.63249197 -4 13 C-3.27410707 10.64482184 -2.54482951 8.29068469 -1.8125 5.9375 C-1.20728575 3.95865342 -0.60275236 1.97959785 0 0 Z " fill="#069FD6" transform="translate(128,87)"/>
<path d="M0 0 C0.99 0.33 1.98 0.66 3 1 C2.21496094 1.67804687 1.42992188 2.35609375 0.62109375 3.0546875 C-11.1273691 13.37739327 -20.71800821 25.30262362 -21.94921875 41.6953125 C-21.96597656 42.45585938 -21.98273437 43.21640625 -22 44 C-22.04060547 45.79050781 -22.04060547 45.79050781 -22.08203125 47.6171875 C-22.19502882 55.79428151 -21.86319445 63.86130949 -21 72 C-21.99 71.67 -22.98 71.34 -24 71 C-23.67 73.64 -23.34 76.28 -23 79 C-30.94793428 68.88444728 -30.12410186 55.3209142 -29 43 C-26.10349919 26.37509503 -16.5185803 12.21514132 -3.25 2 C-1.64125 1.01 -1.64125 1.01 0 0 Z " fill="#56ABCE" transform="translate(43,29)"/>
<path d="M0 0 C0.66 0 1.32 0 2 0 C-2.43144267 12.1326877 -12.57750832 23.95698054 -24 30 C-24.66 30 -25.32 30 -26 30 C-26.495 31.485 -26.495 31.485 -27 33 C-29.475 33.495 -29.475 33.495 -32 34 C-31.67 32.02 -31.34 30.04 -31 28 C-35.3164922 27.23826608 -38.74433453 26.83936396 -43 28 C-43.495 29.485 -43.495 29.485 -44 31 C-48.42910272 31.04973511 -52.85805397 31.08587704 -57.28735352 31.10986328 C-58.79161413 31.11987124 -60.29585553 31.1334818 -61.80004883 31.15087891 C-63.97221643 31.17535809 -66.14412504 31.18653523 -68.31640625 31.1953125 C-69.62037354 31.20578613 -70.92434082 31.21625977 -72.26782227 31.22705078 C-76.21298432 30.98704289 -79.26462372 30.22187181 -83 29 C-83 28.67 -83 28.34 -83 28 C-82.07775635 28.00523682 -81.1555127 28.01047363 -80.20532227 28.01586914 C-76.74437825 28.03303372 -73.28348028 28.04550942 -69.82250977 28.05493164 C-68.33194255 28.05992328 -66.84138014 28.06671894 -65.35083008 28.07543945 C-57.50515009 28.12015168 -49.78626828 28.1148321 -42 27 C-42 26.34 -42 25.68 -42 25 C-40.865625 24.649375 -39.73125 24.29875 -38.5625 23.9375 C-30.2816612 20.82121261 -23.97849665 14.32451897 -18 8 C-17.39453125 9.81640625 -17.39453125 9.81640625 -17 12 C-18.6875 14.9375 -18.6875 14.9375 -21 18 C-21.680625 18.94875 -22.36125 19.8975 -23.0625 20.875 C-23.701875 21.57625 -24.34125 22.2775 -25 23 C-25.99 23 -26.98 23 -28 23 C-27.34 24.32 -26.68 25.64 -26 27 C-25.34 27 -24.68 27 -24 27 C-23.67 26.34 -23.34 25.68 -23 25 C-22.01 25 -21.02 25 -20 25 C-20 24.34 -20 23.68 -20 23 C-19.01 22.67 -18.02 22.34 -17 22 C-17 21.34 -17 20.68 -17 20 C-12.61538462 17 -12.61538462 17 -10 17 C-9.896875 16.360625 -9.79375 15.72125 -9.6875 15.0625 C-9.460625 14.381875 -9.23375 13.70125 -9 13 C-8.01 12.67 -7.02 12.34 -6 12 C-6 10.35 -6 8.7 -6 7 C-5.34 7 -4.68 7 -4 7 C-4 6.34 -4 5.68 -4 5 C-3.34 5 -2.68 5 -2 5 C-1.855625 4.360625 -1.71125 3.72125 -1.5625 3.0625 C-1 1 -1 1 0 0 Z " fill="#149AC8" transform="translate(133,106)"/>
<path d="M0 0 C0.99 0 1.98 0 3 0 C3.66666667 1.33333333 4.33333333 2.66666667 5 4 C6.65 3.34 8.3 2.68 10 2 C9.34 3.98 8.68 5.96 8 8 C8.66 8 9.32 8 10 8 C11.00806038 12.91429436 11.75440788 18.0032725 11 23 C9 25.0625 9 25.0625 7 26 C7.37125 27.03125 7.7425 28.0625 8.125 29.125 C9.07536506 33.33375955 8.70269571 35.12163756 7 39 C6.34 39 5.68 39 5 39 C5.06960937 38.09507813 5.06960937 38.09507813 5.140625 37.171875 C5.45911025 32.0796137 5.45911025 32.0796137 3.3125 27.625 C0.99975909 25.93012329 0.99975909 25.93012329 -1.6875 24.5625 C-4 23 -4 23 -4.875 20.375 C-4.91625 19.59125 -4.9575 18.8075 -5 18 C-4 17 -4 17 -1.625 16.8125 C1 17 1 17 4 19 C5.32 19 6.64 19 8 19 C8.33 17.68 8.66 16.36 9 15 C8.195625 14.690625 7.39125 14.38125 6.5625 14.0625 C4 13 4 13 3 12 C2.95936168 10.33382885 2.957279 8.66611905 3 7 C1.68 7 0.36 7 -1 7 C-1.07347656 7.62777344 -1.14695312 8.25554687 -1.22265625 8.90234375 C-2 11 -2 11 -3.99609375 11.94140625 C-4.80175781 12.14636719 -5.60742188 12.35132812 -6.4375 12.5625 C-10.45946065 13.56530179 -10.45946065 13.56530179 -13 17 C-13.38499891 18.65549531 -13.72793135 20.3222433 -14 22 C-14.33 22 -14.66 22 -15 22 C-15.33 19.36 -15.66 16.72 -16 14 C-15.34 14 -14.68 14 -14 14 C-14 13.01 -14 12.02 -14 11 C-12.02 10.67 -10.04 10.34 -8 10 C-8 9.34 -8 8.68 -8 8 C-7.34 8 -6.68 8 -6 8 C-6 6.35 -6 4.7 -6 3 C-4.68 2.34 -3.36 1.68 -2 1 C-2 1.66 -2 2.32 -2 3 C-1.34 3 -0.68 3 0 3 C0 2.01 0 1.02 0 0 Z " fill="#89B64F" transform="translate(59,60)"/>
<path d="M0 0 C1.2065625 0.0309375 1.2065625 0.0309375 2.4375 0.0625 C2.4375 0.7225 2.4375 1.3825 2.4375 2.0625 C3.1284375 2.32675781 3.819375 2.59101562 4.53125 2.86328125 C14.83408391 7.11458503 24.66596809 12.72224419 34.4375 18.0625 C33.9425 19.5475 33.9425 19.5475 33.4375 21.0625 C31.375 21.75 31.375 21.75 29.4375 22.0625 C29.7675 20.7425 30.0975 19.4225 30.4375 18.0625 C28.45182292 17.8671875 26.46614583 17.671875 24.48046875 17.4765625 C22.4375 17.0625 22.4375 17.0625 19.4375 15.0625 C19.4375 14.4025 19.4375 13.7425 19.4375 13.0625 C14.23416866 10.81968477 11.09485415 9.50672761 5.4375 11.0625 C5.4375 10.4025 5.4375 9.7425 5.4375 9.0625 C4.1175 9.0625 2.7975 9.0625 1.4375 9.0625 C1.746875 8.134375 1.746875 8.134375 2.0625 7.1875 C2.18625 6.48625 2.31 5.785 2.4375 5.0625 C1.7775 4.4025 1.1175 3.7425 0.4375 3.0625 C-2.18801393 5.54609426 -4.38398316 7.76497194 -6.25 10.875 C-6.683125 11.596875 -7.11625 12.31875 -7.5625 13.0625 C-8.2225 13.0625 -8.8825 13.0625 -9.5625 13.0625 C-9.58828125 13.93132813 -9.6140625 14.80015625 -9.640625 15.6953125 C-10.21946302 27.45624866 -10.21946302 27.45624866 -14.5625 32.0625 C-15.2225 32.0625 -15.8825 32.0625 -16.5625 32.0625 C-15.9025 41.3025 -15.2425 50.5425 -14.5625 60.0625 C-16.5625 59.0625 -16.5625 59.0625 -17.1953125 57.33984375 C-19.94291321 44.2778372 -19.27754929 33.67710339 -15 21.125 C-14.67789551 20.16634033 -14.35579102 19.20768066 -14.02392578 18.2199707 C-11.88859814 12.38256313 -7.19743813 0.17554727 0 0 Z " fill="#A1C574" transform="translate(41.5625,38.9375)"/>
<path d="M0 0 C4.02634805 1.34211602 6.03685485 3.03685485 9 6 C11.28227295 7.45235551 13.61523031 8.71589324 16 10 C14.86188466 15.18474764 12.65320441 17.52410044 8.93359375 21.01171875 C6.08128624 23.94469759 3.91327863 27.26353037 1.6328125 30.6484375 C0.26056213 32.62474067 -1.15106142 34.39707177 -2.75 36.1875 C-4.80046135 38.75057669 -5.94483883 40.97752658 -7.12109375 44.015625 C-8.21454351 46.48439156 -9.58306825 48.70227283 -11 51 C-13.40285169 54.90911693 -15.3294925 58.73092527 -17 63 C-17.33 63 -17.66 63 -18 63 C-17.76552502 57.17329665 -17.31587939 52.88794193 -14.03125 47.90234375 C-12.74748701 45.53419005 -12.23570224 43.24593044 -11.625 40.625 C-10.22208126 35.02107596 -7.84983418 30.34312769 -4 26 C-3.34 26 -2.68 26 -2 26 C-1.79375 25.443125 -1.5875 24.88625 -1.375 24.3125 C0.55000774 21.07498698 3.03850902 19.31768859 6 17 C6.33 17.99 6.66 18.98 7 20 C9.14579161 18.44098818 9.14579161 18.44098818 11 16 C11.33417929 12.3324787 11.33417929 12.3324787 11 9 C8.69 8.01 6.38 7.02 4 6 C4 5.34 4 4.68 4 4 C3.34 4 2.68 4 2 4 C1.34 2.68 0.68 1.36 0 0 Z " fill="#9BBF4B" transform="translate(109,47)"/>
<path d="M0 0 C1.46015291 0.28241641 2.91809793 0.57626614 4.375 0.875 C5.18710938 1.03742187 5.99921875 1.19984375 6.8359375 1.3671875 C9 2 9 2 11 4 C11 4.99 11 5.98 11 7 C10.34 7 9.68 7 9 7 C8.9071875 8.7325 8.9071875 8.7325 8.8125 10.5 C8.4035133 13.84784828 7.60671755 15.92641708 5.6875 18.6875 C2.6828254 23.08226831 1.42468488 27.66886672 -0.02734375 32.75390625 C-0.91027856 35.7005682 -1.94077474 38.47647715 -3.125 41.3125 C-4.86224055 45.49145266 -6.0187034 49.58416532 -7 54 C-7.33 54 -7.66 54 -8 54 C-7.96543012 39.99919956 -6.41704527 24.52447598 0.09350586 11.87548828 C1.32881004 9.31970947 0.99159802 7.53614492 0.625 4.75 C0.51414062 3.85796875 0.40328125 2.9659375 0.2890625 2.046875 C0.19367188 1.37140625 0.09828125 0.6959375 0 0 Z " fill="#95C33A" transform="translate(94,58)"/>
<path d="M0 0 C4.15818305 1.37260412 7.49316767 4.12888676 11.01171875 6.6640625 C11.92308594 7.23898438 12.83445312 7.81390625 13.7734375 8.40625 C15.12888672 9.27636719 15.12888672 9.27636719 16.51171875 10.1640625 C17.34703125 10.69 18.18234375 11.2159375 19.04296875 11.7578125 C21.6135121 14.2467513 21.73676689 16.16824599 22.01171875 19.6640625 C21.02171875 19.6640625 20.03171875 19.6640625 19.01171875 19.6640625 C19.01171875 19.3340625 19.01171875 19.0040625 19.01171875 18.6640625 C18.26921875 18.9115625 17.52671875 19.1590625 16.76171875 19.4140625 C15.85421875 19.4965625 14.94671875 19.5790625 14.01171875 19.6640625 C12.63470577 18.37588906 11.30527702 17.03601824 10.01171875 15.6640625 C8.02372057 14.96241608 6.02473358 14.29033378 4.01171875 13.6640625 C3.68171875 13.0040625 3.35171875 12.3440625 3.01171875 11.6640625 C2.02171875 11.3546875 1.03171875 11.0453125 0.01171875 10.7265625 C-1.47328125 10.200625 -1.47328125 10.200625 -2.98828125 9.6640625 C-3.31828125 8.6740625 -3.64828125 7.6840625 -3.98828125 6.6640625 C-5.30828125 6.6640625 -6.62828125 6.6640625 -7.98828125 6.6640625 C-8.17578125 4.2890625 -8.17578125 4.2890625 -7.98828125 1.6640625 C-4.8186401 -0.4490316 -3.66234589 -0.66029716 0 0 Z " fill="#9DC73A" transform="translate(71.98828125,24.3359375)"/>
<path d="M0 0 C0.66 0.33 1.32 0.66 2 1 C1.67 2.32 1.34 3.64 1 5 C1.65742187 5.37769531 2.31484375 5.75539063 2.9921875 6.14453125 C7.90766321 8.9885802 12.79569811 11.86212869 17.62890625 14.84375 C18.42377441 15.33383545 19.21864258 15.8239209 20.03759766 16.32885742 C21.61621151 17.3047716 23.19277454 18.28401231 24.76708984 19.2668457 C28.4255024 21.52800912 31.90867701 23.59284518 36 25 C36 25.66 36 26.32 36 27 C36.9075 27.268125 37.815 27.53625 38.75 27.8125 C41.75835378 28.91170619 43.50358617 30.08608273 46 32 C48.14733927 32.70514846 48.14733927 32.70514846 50 33 C49.50506533 37.75416122 48.27876594 40.55220583 45.4375 44.375 C44.47650391 45.68597656 44.47650391 45.68597656 43.49609375 47.0234375 C43.00238281 47.67570312 42.50867188 48.32796875 42 49 C40.93471252 46.26980214 40.92001814 45.20701188 41.99609375 42.421875 C42.47175781 41.54015625 42.94742188 40.6584375 43.4375 39.75 C43.91058594 38.85796875 44.38367188 37.9659375 44.87109375 37.046875 C45.24363281 36.37140625 45.61617187 35.6959375 46 35 C45.30519531 34.74863281 44.61039063 34.49726562 43.89453125 34.23828125 C40.60321382 32.83025477 37.72112752 31.08760443 34.6875 29.1875 C34.11354492 28.83002686 33.53958984 28.47255371 32.94824219 28.10424805 C30.52318538 26.59217389 28.10631475 25.06727871 25.69140625 23.5390625 C21.71856625 21.02905896 17.68933307 18.70560875 13.55859375 16.46484375 C9.33393909 14.04614833 5.27911535 11.34381403 1.2109375 8.671875 C-2.30998933 6.83859437 -5.05449 6.25103485 -9 6 C-11.3715005 6.80579785 -11.3715005 6.80579785 -13 8 C-12 5 -12 5 -9 3 C-5.3125 3.375 -5.3125 3.375 -2 4 C-1.34 2.68 -0.68 1.36 0 0 Z " fill="#D3EFA3" transform="translate(61,26)"/>
<path d="M0 0 C0.495 0.99 0.495 0.99 1 2 C0.0625 4.125 0.0625 4.125 -1 6 C-1.66 6 -2.32 6 -3 6 C-4.52299523 8.93720508 -5.80100302 11.9168649 -7 15 C-5.02 15.33 -3.04 15.66 -1 16 C-0.16798447 27.23220969 -5.72851493 36.95046166 -12 46 C-18.63944075 53.67485193 -25.77704544 60.91754629 -36 63 C-38.9375 63.125 -38.9375 63.125 -41 63 C-41 60.36 -41 57.72 -41 55 C-40.01 54.505 -40.01 54.505 -39 54 C-39.33 56.64 -39.66 59.28 -40 62 C-37.03 61.505 -37.03 61.505 -34 61 C-34 60.34 -34 59.68 -34 59 C-32.68 59 -31.36 59 -30 59 C-30 58.01 -30 57.02 -30 56 C-26.535 55.505 -26.535 55.505 -23 55 C-23 54.01 -23 53.02 -23 52 C-22.01 52 -21.02 52 -20 52 C-20 51.01 -20 50.02 -20 49 C-19.34 49 -18.68 49 -18 49 C-18 48.34 -18 47.68 -18 47 C-17.01 46.34 -16.02 45.68 -15 45 C-14.484375 44.13375 -13.96875 43.2675 -13.4375 42.375 C-12.963125 41.59125 -12.48875 40.8075 -12 40 C-11.34 40 -10.68 40 -10 40 C-10.0928125 38.8553125 -10.0928125 38.8553125 -10.1875 37.6875 C-10 35 -10 35 -8.625 33.1875 C-7 32 -7 32 -5 32 C-4.67 28.04 -4.34 24.08 -4 20 C-5.98 19.67 -7.96 19.34 -10 19 C-10 16.36 -10 13.72 -10 11 C-9.34 11 -8.68 11 -8 11 C-8 10.01 -8 9.02 -8 8 C-7.34 8 -6.68 8 -6 8 C-6 7.34 -6 6.68 -6 6 C-4.68 5.67 -3.36 5.34 -2 5 C-2 3.68 -2 2.36 -2 1 C-1.34 0.67 -0.68 0.34 0 0 Z " fill="#D3F4F8" transform="translate(127,69)"/>
<path d="M0 0 C1.83984375 0.16796875 1.83984375 0.16796875 4 1 C5.31640625 3.30078125 5.31640625 3.30078125 6.5625 6.3125 C10.0856925 13.86477931 15.18829725 19.17005014 21 25 C21.60457031 25.60714844 22.20914063 26.21429688 22.83203125 26.83984375 C23.41017578 27.41412109 23.41017578 27.41412109 24 28 C21.61435923 27.42415568 19.33317216 26.77772405 17 26 C17.19471111 27.94999129 17.19471111 27.94999129 18 30 C19.31647119 30.69937532 20.65022151 31.36729133 22 32 C22.33 32.99 22.66 33.98 23 35 C14.86596245 32.21804619 9.51360038 25.05250059 5 18 C5 17.34 5 16.68 5 16 C4.34 16 3.68 16 3 16 C1.35199144 12.33552568 0.66419027 9.18796534 0.375 5.1875 C0.30023437 4.21167969 0.22546875 3.23585938 0.1484375 2.23046875 C0.09945313 1.49441406 0.05046875 0.75835937 0 0 Z " fill="#338DB8" transform="translate(19,100)"/>
<path d="M0 0 C0.763125 0.66 1.52625 1.32 2.3125 2 C4.84277939 4.29850538 4.84277939 4.29850538 8 4 C7.91320858 6.46008778 7.80639045 8.91643517 7.6875 11.375 C7.65366211 12.42300781 7.65366211 12.42300781 7.61914062 13.4921875 C7.51171875 15.5234375 7.51171875 15.5234375 7 19 C6.01 19.66 5.02 20.32 4 21 C3.67 21.99 3.34 22.98 3 24 C2.34 24 1.68 24 1 24 C0.67 24.66 0.34 25.32 0 26 C0 24.68 0 23.36 0 22 C-1.98 22.33 -3.96 22.66 -6 23 C-5.13873348 18.13928894 -3.77471846 13.43331453 -2.4375 8.6875 C-2.20353516 7.85154297 -1.96957031 7.01558594 -1.72851562 6.15429688 C-1.15398566 4.10240414 -0.57721561 2.05113886 0 0 Z " fill="#09A7DE" transform="translate(128,87)"/>
<path d="M0 0 C3.79954885 3.5466892 6.6426306 7.21407556 9.3125 11.6875 C9.67150391 12.26822266 10.03050781 12.84894531 10.40039062 13.44726562 C13 17.73043155 13 17.73043155 13 20 C10.03 20 7.06 20 4 20 C3.97421875 20.78503906 3.9484375 21.57007812 3.921875 22.37890625 C3.5613298 29.05718668 2.87036626 33.50657692 -1 39 C-1.33 39 -1.66 39 -2 39 C-2.2358396 33.22192976 -1.86783046 28.48675196 0 23 C0.66 23 1.32 23 2 23 C1.67 21.68 1.34 20.36 1 19 C-0.32 19 -1.64 19 -3 19 C-3 18.01 -3 17.02 -3 16 C-2.34 16 -1.68 16 -1 16 C1.3393663 11.63318291 2.44007565 8.61203172 1.0625 3.75 C0.711875 2.5125 0.36125 1.275 0 0 Z " fill="#20AFDA" transform="translate(137,66)"/>
<path d="M0 0 C6.34339651 1.80610595 11.56938255 4.25627734 17 8 C16.40758801 12.39701345 15.29337064 16.14479709 13.625 20.25 C9.42957939 30.59698824 7.53095941 39.42739462 7.3125 50.625 C7.27833984 51.81996094 7.24417969 53.01492187 7.20898438 54.24609375 C7.12728388 57.16396851 7.05788247 60.08157218 7 63 C6.67 63 6.34 63 6 63 C4.86924871 57.54525576 4.81642371 52.23170402 4.8125 46.6875 C4.80025391 45.78837891 4.78800781 44.88925781 4.77539062 43.96289062 C4.7575808 35.75256008 5.92300698 28.6077201 9.5625 21.1875 C11.04964557 18.12936386 12.30782702 15.33642932 13 12 C12.34 11.67 11.68 11.34 11 11 C11.66 10.01 12.32 9.02 13 8 C10.07120629 8.62759865 7.63904371 9.58622659 5 11 C5 9.68 5 8.36 5 7 C5.66 7 6.32 7 7 7 C6.67 6.34 6.34 5.68 6 5 C5.360625 4.87625 4.72125 4.7525 4.0625 4.625 C2 4 2 4 0.87109375 1.9609375 C0.58363281 1.31382813 0.29617187 0.66671875 0 0 Z " fill="#A0C35A" transform="translate(76,58)"/>
<path d="M0 0 C0.33 0.99 0.66 1.98 1 3 C0.34 3 -0.32 3 -1 3 C-1 3.99 -1 4.98 -1 6 C-8.80563342 9.90281671 -16.48792953 9.27891493 -25 9 C-23.7890625 6.046875 -23.7890625 6.046875 -22 3 C-19.7734375 2.265625 -19.7734375 2.265625 -17.375 2.25 C-15.03270562 2.23820921 -15.03270562 2.23820921 -13 2 C-12.67 1.34 -12.34 0.68 -12 0 C-7.57780438 -2.60129154 -4.64420855 -1.87554576 0 0 Z " fill="#068FCA" transform="translate(102,134)"/>
<path d="M0 0 C-0.33 0.99 -0.66 1.98 -1 3 C1.31 3 3.62 3 6 3 C6 3.66 6 4.32 6 5 C4.948125 4.896875 3.89625 4.79375 2.8125 4.6875 C-1.93565008 5.07669263 -2.93764654 6.51231967 -6 10 C-6.99 10.33 -7.98 10.66 -9 11 C-9 11.66 -9 12.32 -9 13 C-10.32 12.67 -11.64 12.34 -13 12 C-12.60196439 9.11424181 -12.20990931 8.17810487 -9.9375 6.25 C-9.298125 5.8375 -8.65875 5.425 -8 5 C-16.97111515 7.94161566 -24.07680906 16.19080058 -29 24 C-29.144375 23.401875 -29.28875 22.80375 -29.4375 22.1875 C-29.8872439 20.43849596 -30.42892341 18.71322977 -31 17 C-29.35 16.67 -27.7 16.34 -26 16 C-25.67 15.01 -25.34 14.02 -25 13 C-24.34 12.34 -23.68 11.68 -23 11 C-22.01 11 -21.02 11 -20 11 C-19.896875 10.360625 -19.79375 9.72125 -19.6875 9.0625 C-19.3471875 8.0415625 -19.3471875 8.0415625 -19 7 C-18.01 6.67 -17.02 6.34 -16 6 C-15.67 5.34 -15.34 4.68 -15 4 C-14.34 4 -13.68 4 -13 4 C-13 3.34 -13 2.68 -13 2 C-8.49646738 0.24252386 -4.82360189 -0.19294408 0 0 Z " fill="#E7F6D8" transform="translate(53,25)"/>
<path d="M0 0 C0.99 0 1.98 0 3 0 C3.66666667 1.33333333 4.33333333 2.66666667 5 4 C6.65 3.34 8.3 2.68 10 2 C9.34 3.98 8.68 5.96 8 8 C8.66 8 9.32 8 10 8 C10.33 8.99 10.66 9.98 11 11 C9.02 11.33 7.04 11.66 5 12 C4.67 10.68 4.34 9.36 4 8 C1.525 7.505 1.525 7.505 -1 7 C-1.07347656 7.62777344 -1.14695312 8.25554687 -1.22265625 8.90234375 C-2 11 -2 11 -3.99609375 11.94140625 C-4.80175781 12.14636719 -5.60742188 12.35132812 -6.4375 12.5625 C-10.45946065 13.56530179 -10.45946065 13.56530179 -13 17 C-13.38499891 18.65549531 -13.72793135 20.3222433 -14 22 C-14.33 22 -14.66 22 -15 22 C-15.33 19.36 -15.66 16.72 -16 14 C-15.34 14 -14.68 14 -14 14 C-14 13.01 -14 12.02 -14 11 C-12.02 10.67 -10.04 10.34 -8 10 C-8 9.34 -8 8.68 -8 8 C-7.34 8 -6.68 8 -6 8 C-6 6.35 -6 4.7 -6 3 C-4.68 2.34 -3.36 1.68 -2 1 C-2 1.66 -2 2.32 -2 3 C-1.34 3 -0.68 3 0 3 C0 2.01 0 1.02 0 0 Z " fill="#8EBA42" transform="translate(59,60)"/>
<path d="M0 0 C0 3 0 3 -1.75 5.875 C-4.36223618 10.22566097 -5.58057523 14.87258504 -6.9921875 19.71875 C-7.89821143 22.66859537 -8.93910011 25.46634027 -10.125 28.3125 C-11.86224055 32.49145266 -13.0187034 36.58416532 -14 41 C-14.33 41 -14.66 41 -15 41 C-14.73437131 29.40530785 -13.5156126 19.08644347 -10 8 C-9.34 8.66 -8.68 9.32 -8 10 C-7.67386719 9.44570312 -7.34773438 8.89140625 -7.01171875 8.3203125 C-6.57472656 7.59585938 -6.13773438 6.87140625 -5.6875 6.125 C-5.25824219 5.40570313 -4.82898438 4.68640625 -4.38671875 3.9453125 C-3 2 -3 2 0 0 Z " fill="#92BB4F" transform="translate(101,71)"/>
<path d="M0 0 C1.32 0 2.64 0 4 0 C4.061875 0.763125 4.12375 1.52625 4.1875 2.3125 C4.76935262 5.23051809 4.76935262 5.23051809 7.5625 6.8125 C8.366875 7.204375 9.17125 7.59625 10 8 C9.67 9.65 9.34 11.3 9 13 C3.125 12.125 3.125 12.125 2 11 C-0.45792029 10.66656449 -0.45792029 10.66656449 -3 11 C-3.99 12.485 -3.99 12.485 -5 14 C-4.67 12.35 -4.34 10.7 -4 9 C-2.35 8.67 -0.7 8.34 1 8 C1 7.34 1 6.68 1 6 C-2.3 6.33 -5.6 6.66 -9 7 C-9 10.96 -9 14.92 -9 19 C-10.32 17.68 -11.64 16.36 -13 15 C-12.94035447 11.60020453 -12.67101697 9.14467601 -10.9375 6.1875 C-8.33835232 4.594474 -5.72736283 4.14986599 -2.7421875 3.625 C-2.16726562 3.41875 -1.59234375 3.2125 -1 3 C-0.67 2.01 -0.34 1.02 0 0 Z " fill="#E9F8D4" transform="translate(58,67)"/>
<path d="M0 0 C0.33 0 0.66 0 1 0 C0.98839844 0.85980469 0.97679688 1.71960938 0.96484375 2.60546875 C0.90234729 10.7925052 1.24173403 18.84864083 2 27 C2.66 25.02 3.32 23.04 4 21 C4.33 21.99 4.66 22.98 5 24 C5.66 24 6.32 24 7 24 C7.33 23.01 7.66 22.02 8 21 C7.87210381 24.0503241 7.66552723 27.01586177 7 30 C5.68662604 31.0260734 4.35335895 32.02727325 3 33 C2.32901359 35.69476799 2.18290063 38.21076543 2 41 C3.65 41 5.3 41 7 41 C3.99382731 44.00617269 1.17618402 43.59585316 -3 44 C-3 43.34 -3 42.68 -3 42 C-7.62 42 -12.24 42 -17 42 C-17 41.67 -17 41.34 -17 41 C-11.06 40.67 -5.12 40.34 1 40 C0.67386719 38.79988281 0.34773438 37.59976563 0.01171875 36.36328125 C-1.40099319 29.99547907 -1.25407762 23.68057036 -1.1875 17.1875 C-1.18685547 15.97384766 -1.18621094 14.76019531 -1.18554688 13.50976562 C-1.13707446 3.77758254 -1.13707446 3.77758254 0 0 Z " fill="#BEDEB2" transform="translate(84,91)"/>
<path d="M0 0 C0.99 0 1.98 0 3 0 C3.33 1.32 3.66 2.64 4 4 C1.525 3.505 1.525 3.505 -1 3 C-1.2165625 3.8971875 -1.2165625 3.8971875 -1.4375 4.8125 C-1.8872439 6.56150404 -2.42892341 8.28677023 -3 10 C-3.66 10 -4.32 10 -5 10 C-5 11.65 -5 13.3 -5 15 C-5.639375 15.2475 -6.27875 15.495 -6.9375 15.75 C-9.18741541 16.81562433 -9.18741541 16.81562433 -9.75 19.125 C-9.8325 19.74375 -9.915 20.3625 -10 21 C-9.0409375 21.2165625 -9.0409375 21.2165625 -8.0625 21.4375 C-6 22 -6 22 -5 23 C-3.8809049 32.84803687 -8.12898507 42.54622975 -13.6328125 50.48828125 C-14.08398438 50.98714844 -14.53515625 51.48601562 -15 52 C-15.66 52 -16.32 52 -17 52 C-15.98999095 49.35843787 -14.91399216 46.83189376 -13.625 44.3125 C-10.1713206 37.27230738 -7.58242984 30.86280278 -7 23 C-9.31 23 -11.62 23 -14 23 C-12.49760034 19.38058265 -11.17854707 16.2678206 -9 13 C-8.34 13 -7.68 13 -7 13 C-6.62875 11.700625 -6.62875 11.700625 -6.25 10.375 C-4.81906411 6.5114731 -2.94650436 2.94650436 0 0 Z " fill="#3BB2DA" transform="translate(133,62)"/>
<path d="M0 0 C2.01220804 5.55001173 -0.86098468 10.8253761 -3 16 C-4.39268334 18.58749911 -5.89256308 21.05456451 -7.47265625 23.53125 C-9.94887821 27.53373665 -11.96210511 31.7619 -14 36 C-14.33 36 -14.66 36 -15 36 C-14.76569128 30.1774283 -14.32484009 25.88183167 -11.02734375 20.90625 C-9.73939531 18.51644453 -9.27300566 16.21000386 -8.6875 13.5625 C-7.24005319 7.67513209 -4.3239518 4.1344087 0 0 Z " fill="#9ABB5D" transform="translate(106,74)"/>
<path d="M0 0 C0.33 0.66 0.66 1.32 1 2 C1.66 2.33 2.32 2.66 3 3 C1.68 3 0.36 3 -1 3 C-1.11617676 3.59466064 -1.23235352 4.18932129 -1.35205078 4.80200195 C-2 7 -2 7 -4.3671875 10.16796875 C-7.39397786 14.24467022 -8.71508773 18.4802029 -10.125 23.3125 C-10.59690389 24.91569782 -11.07827319 26.51614824 -11.5703125 28.11328125 C-11.87606201 29.16189331 -11.87606201 29.16189331 -12.18798828 30.23168945 C-13 32 -13 32 -16 34 C-17.19232613 36.05003955 -17.19232613 36.05003955 -18 38 C-19.14900005 26.50999952 -13.83735717 16.14910637 -6.9375 7.2890625 C-4.7387118 4.69130064 -2.52113077 2.28477476 0 0 Z " fill="#C4ECDA" transform="translate(39,35)"/>
<path d="M0 0 C4.455 0.99 4.455 0.99 9 2 C9 3.65 9 5.3 9 7 C11.97 7.33 14.94 7.66 18 8 C18 8.99 18 9.98 18 11 C14.54754176 13.30163882 13.05261287 13.34490322 9 13 C8.34 12.34 7.68 11.68 7 11 C5.2365625 10.3503125 5.2365625 10.3503125 3.4375 9.6875 C0 8 0 8 -1 5.5 C-1 3 -1 3 0 0 Z " fill="#98C23E" transform="translate(62,38)"/>
<path d="M0 0 C11.90886374 2.2901661 22.45211121 9.24969934 33 15 C32.67 15.99 32.34 16.98 32 18 C29.9375 18.6875 29.9375 18.6875 28 19 C28.33 17.68 28.66 16.36 29 15 C27.01432292 14.8046875 25.02864583 14.609375 23.04296875 14.4140625 C21 14 21 14 18 12 C18 11.34 18 10.68 18 10 C12.79666866 7.75718477 9.65735415 6.44422761 4 8 C4 7.34 4 6.68 4 6 C2.68 6 1.36 6 0 6 C0.185625 5.38125 0.37125 4.7625 0.5625 4.125 C1.23686176 1.95839822 1.23686176 1.95839822 0 0 Z " fill="#99BF4D" transform="translate(43,42)"/>
<path d="M0 0 C2.0625 0.4375 2.0625 0.4375 4 1 C4 1.66 4 2.32 4 3 C4.66 3 5.32 3 6 3 C6 3.66 6 4.32 6 5 C7.7015625 5.4640625 7.7015625 5.4640625 9.4375 5.9375 C13 7 13 7 14 8 C14.04080783 9.99958364 14.04254356 12.00045254 14 14 C9.545 14.495 9.545 14.495 5 15 C4.67 13.35 4.34 11.7 4 10 C2.68 9.67 1.36 9.34 0 9 C-0.87890625 2.84765625 -0.87890625 2.84765625 -1 1 C-0.67 0.67 -0.34 0.34 0 0 Z " fill="#9AC739" transform="translate(107,48)"/>
<path d="M0 0 C0.66 1.32 1.32 2.64 2 4 C-8.41153836 11.12884156 -20.30180103 15.67134073 -33 16 C-30.26608093 12.82999567 -28.37758228 12.79095986 -24.25390625 12.44921875 C-20.78523366 11.75788886 -18.12037694 9.95885385 -15.17578125 8.05859375 C-12.61844809 6.81436164 -10.80896289 6.80814439 -8 7 C-7.34 5.68 -6.68 4.36 -6 3 C-5.34 3 -4.68 3 -4 3 C-4 2.34 -4 1.68 -4 1 C-2.68 0.67 -1.36 0.34 0 0 Z " fill="#F8FCFA" transform="translate(115,134)"/>
<path d="M0 0 C0.33 0 0.66 0 1 0 C1.33 11.22 1.66 22.44 2 34 C1.01 34 0.02 34 -1 34 C-2.66893337 28.92723415 -3.29147685 24.41987489 -3.1875 19.0625 C-3.17960449 18.3610083 -3.17170898 17.6595166 -3.16357422 16.93676758 C-2.95728493 4.4359274 -2.95728493 4.4359274 0 0 Z " fill="#1685BB" transform="translate(18,65)"/>
<path d="M0 0 C0.66 0 1.32 0 2 0 C2 2 2 2 0.5625 3.9375 C-2.41627939 6.33505414 -5.04068541 7.17139192 -8.68359375 8.19140625 C-11.08664295 8.91404058 -11.08664295 8.91404058 -13.20410156 10.53222656 C-16.7053662 12.37029878 -19.1098976 12.3432779 -23.05078125 12.29296875 C-23.70958786 12.28872391 -24.36839447 12.28447906 -25.04716492 12.28010559 C-27.13603885 12.26341196 -29.22392139 12.22578058 -31.3125 12.1875 C-32.73501203 12.17244097 -34.1575393 12.15875469 -35.58007812 12.14648438 C-39.05370351 12.11354003 -42.52675487 12.06182408 -46 12 C-46 11.34 -46 10.68 -46 10 C-45.33693848 10.00112793 -44.67387695 10.00225586 -43.99072266 10.00341797 C-21.25277215 10.46890378 -21.25277215 10.46890378 -1.1484375 1.3046875 C-0.57996094 0.65886719 -0.57996094 0.65886719 0 0 Z " fill="#C7EEF7" transform="translate(109,135)"/>
<path d="M0 0 C1.65 0.33 3.3 0.66 5 1 C4.47226334 5.22189331 3.32088353 8.85279163 1.80444336 12.81494141 C0.51843087 16.30805576 -0.52614154 19.86375193 -1.5625 23.4375 C-1.77865967 24.17669678 -1.99481934 24.91589355 -2.2175293 25.67749023 C-3.68343119 30.74987879 -4.96408451 35.82042256 -6 41 C-6.33 41 -6.66 41 -7 41 C-7.60835852 29.23840204 -4.59106321 18.55089979 0.109375 7.83984375 C1.08468012 4.72998926 0.92777177 3.08314398 0 0 Z " fill="#D2EDAF" transform="translate(91,64)"/>
<path d="M0 0 C0.66 0 1.32 0 2 0 C-2.43144267 12.1326877 -12.57750832 23.95698054 -24 30 C-24.66 30 -25.32 30 -26 30 C-26.33 30.99 -26.66 31.98 -27 33 C-29.475 33.495 -29.475 33.495 -32 34 C-32 33.01 -32 32.02 -32 31 C-30.68 31 -29.36 31 -28 31 C-28 30.34 -28 29.68 -28 29 C-27.360625 28.71125 -26.72125 28.4225 -26.0625 28.125 C-23.84793921 27.17176549 -23.84793921 27.17176549 -23 25 C-22.01 25 -21.02 25 -20 25 C-20 24.34 -20 23.68 -20 23 C-19.01 22.67 -18.02 22.34 -17 22 C-17 21.34 -17 20.68 -17 20 C-12.61538462 17 -12.61538462 17 -10 17 C-9.896875 16.360625 -9.79375 15.72125 -9.6875 15.0625 C-9.3471875 14.0415625 -9.3471875 14.0415625 -9 13 C-8.01 12.67 -7.02 12.34 -6 12 C-6 10.35 -6 8.7 -6 7 C-5.34 7 -4.68 7 -4 7 C-4 6.34 -4 5.68 -4 5 C-3.34 5 -2.68 5 -2 5 C-1.855625 4.360625 -1.71125 3.72125 -1.5625 3.0625 C-1 1 -1 1 0 0 Z " fill="#2EA1CA" transform="translate(133,106)"/>
<path d="M0 0 C2.3431213 0.25561323 4.67843403 0.59270772 7 1 C7.33 1.66 7.66 2.32 8 3 C7.05125 2.979375 6.1025 2.95875 5.125 2.9375 C2.09333717 2.77448174 2.09333717 2.77448174 0 4 C-0.65555119 6.52733235 -0.65555119 6.52733235 -1 9 C0.65 8.67 2.3 8.34 4 8 C4.061875 8.928125 4.061875 8.928125 4.125 9.875 C4.41375 10.57625 4.7025 11.2775 5 12 C7.91666667 13.25 7.91666667 13.25 11 14 C11.66 14.33 12.32 14.66 13 15 C13 15.66 13 16.32 13 17 C14.65 17.33 16.3 17.66 18 18 C18 18.66 18 19.32 18 20 C18.99 20.33 19.98 20.66 21 21 C21 21.66 21 22.32 21 23 C17.14805475 21.57048467 13.72243219 19.77695533 10.1875 17.6875 C9.14464844 17.07132813 8.10179688 16.45515625 7.02734375 15.8203125 C3.3213794 13.591952 -0.34888785 11.31705194 -4 9 C-3.23596585 5.52846619 -1.91813089 3.00229182 0 0 Z " fill="#A7C95C" transform="translate(65,22)"/>
<path d="M0 0 C13.2 0 26.4 0 40 0 C39.67 0.99 39.34 1.98 39 3 C34.57089728 3.04973511 30.14194603 3.08587704 25.71264648 3.10986328 C24.20838587 3.11987124 22.70414447 3.1334818 21.19995117 3.15087891 C19.02778357 3.17535809 16.85587496 3.18653523 14.68359375 3.1953125 C13.37962646 3.20578613 12.07565918 3.21625977 10.73217773 3.22705078 C6.78701568 2.98704289 3.73537628 2.22187181 0 1 C0 0.67 0 0.34 0 0 Z " fill="#3997BF" transform="translate(50,134)"/>
<path d="M0 0 C0 0.66 0 1.32 0 2 C-1.65 2.66 -3.3 3.32 -5 4 C-4.41196203 7.02419525 -3.77321882 10.01758453 -3 13 C-5.3125 13.6875 -5.3125 13.6875 -8 14 C-9.6875 12.84375 -9.6875 12.84375 -11 11 C-11.07421875 8.51953125 -11.07421875 8.51953125 -10.6875 5.8125 C-10.56761719 4.91144531 -10.44773438 4.01039062 -10.32421875 3.08203125 C-10.21722656 2.39496094 -10.11023437 1.70789063 -10 1 C-6.52674819 -0.1577506 -3.63932552 -0.06866652 0 0 Z " fill="#F7FBF0" transform="translate(59,73)"/>
<path d="M0 0 C0.33 0 0.66 0 1 0 C1 4.62 1 9.24 1 14 C1.99 10.04 2.98 6.08 4 2 C4.83547391 5.34189565 5.43464901 8.60789409 6 12 C6.31674575 13.33737094 6.64270064 14.67288808 7 16 C6.34 16 5.68 16 5 16 C5 16.99 5 17.98 5 19 C4.34 19 3.68 19 3 19 C2.01 21.475 2.01 21.475 1 24 C-1 22 -1 22 -1.23046875 18.76953125 C-1.21628906 17.46371094 -1.20210938 16.15789062 -1.1875 14.8125 C-1.18105469 13.51957031 -1.17460938 12.22664063 -1.16796875 10.89453125 C-1.00728646 7.16894409 -0.59561728 3.67376737 0 0 Z " fill="#B5D092" transform="translate(86,96)"/>
<path d="M0 0 C0.99618795 2.98856385 1.03557922 4.33060559 0.6875 7.375 C0.60886719 8.12523438 0.53023438 8.87546875 0.44921875 9.6484375 C0 12 0 12 -1.00219727 14.26098633 C-2.13180296 17.36180508 -2.31669902 19.88165001 -2.4140625 23.17578125 C-2.45273438 24.33271484 -2.49140625 25.48964844 -2.53125 26.68164062 C-2.5621875 27.87982422 -2.593125 29.07800781 -2.625 30.3125 C-2.66367188 31.53001953 -2.70234375 32.74753906 -2.7421875 34.00195312 C-2.83628002 37.00115228 -2.92192209 40.00034823 -3 43 C-3.33 43 -3.66 43 -4 43 C-5.13075129 37.54525576 -5.18357629 32.23170402 -5.1875 26.6875 C-5.19974609 25.78837891 -5.21199219 24.88925781 -5.22460938 23.96289062 C-5.24350145 15.25364478 -3.6867283 7.87619227 0 0 Z " fill="#8EB755" transform="translate(86,78)"/>
<path d="M0 0 C-0.90621094 0.60585938 -1.81242187 1.21171875 -2.74609375 1.8359375 C-10.56745679 7.17596639 -16.91063163 12.67393872 -23 20 C-23.98660892 21.01321411 -24.98125502 22.01910313 -26 23 C-25.979375 22.21625 -25.95875 21.4325 -25.9375 20.625 C-25.81315937 18.01885039 -25.81315937 18.01885039 -27 16 C-25.35 15.67 -23.7 15.34 -22 15 C-21.67 14.01 -21.34 13.02 -21 12 C-20.34 11.34 -19.68 10.68 -19 10 C-18.01 10 -17.02 10 -16 10 C-15.896875 9.360625 -15.79375 8.72125 -15.6875 8.0625 C-15.3471875 7.0415625 -15.3471875 7.0415625 -15 6 C-14.01 5.67 -13.02 5.34 -12 5 C-11.67 4.34 -11.34 3.68 -11 3 C-10.34 3 -9.68 3 -9 3 C-9 2.34 -9 1.68 -9 1 C-3.375 -1.125 -3.375 -1.125 0 0 Z " fill="#D2F5FA" transform="translate(49,26)"/>
<path d="M0 0 C7.63866698 1.73248117 14.81536384 3.86864309 22 7 C22 7.66 22 8.32 22 9 C31.24 8.67 40.48 8.34 50 8 C41.00912746 12.49543627 26.08564715 11.56599985 16.44921875 8.984375 C13.17441287 7.81656023 10.10659526 6.55548846 7 5 C5.91074219 4.49082031 4.82148437 3.98164063 3.69921875 3.45703125 C1 2 1 2 0 0 Z " fill="#4E9EC3" transform="translate(42,135)"/>
<path d="M0 0 C3.35595828 0.59927826 5.37801226 1.84622436 8 4 C7.67 5.65 7.34 7.3 7 9 C3.28400809 9.20086443 2.22791555 9.1519437 -1 7 C-2.65549531 6.61500109 -4.3222433 6.27206865 -6 6 C-6.33 7.65 -6.66 9.3 -7 11 C-7.625 9.1875 -7.625 9.1875 -8 7 C-6 4 -6 4 -3.375 3.3125 C-2.59125 3.209375 -1.8075 3.10625 -1 3 C-0.67 2.01 -0.34 1.02 0 0 Z " fill="#84B154" transform="translate(48,88)"/>
<path d="M0 0 C1.02866653 3.20415723 1.05483179 3.86017895 -0.25 7.1875 C-2 10 -2 10 -5 11 C-5.433125 11.928125 -5.433125 11.928125 -5.875 12.875 C-7.41341643 15.7808977 -9.05434227 16.5941179 -12 18 C-15.3125 18.6875 -15.3125 18.6875 -18 19 C-15.29536439 16.21340573 -12.57878834 13.63404498 -9.5625 11.1875 C-5.69833962 7.94194424 -2.86200974 4.13051955 0 0 Z " fill="#C7EEF7" transform="translate(129,116)"/>
<path d="M0 0 C0.79192256 2.37576768 1.03680323 3.81860301 0.53344727 6.29956055 C-0.02288888 9.11586908 -0.11367794 11.6516495 -0.09765625 14.51953125 C-0.09443359 15.54111328 -0.09121094 16.56269531 -0.08789062 17.61523438 C-0.07951172 18.67033203 -0.07113281 19.72542969 -0.0625 20.8125 C-0.05798828 21.88693359 -0.05347656 22.96136719 -0.04882812 24.06835938 C-0.03707729 26.71229683 -0.02064787 29.35611952 0 32 C0.66 32 1.32 32 2 32 C2 33.98 2 35.96 2 38 C-3.56821162 32.43178838 -3.04108507 22.20078888 -3.06591797 14.73022461 C-3.06094676 11.48651213 -3.03542686 8.2435258 -3 5 C-2.34 5 -1.68 5 -1 5 C-0.67 3.35 -0.34 1.7 0 0 Z " fill="#CDF1F2" transform="translate(23,68)"/>
<path d="M0 0 C0 1.32 0 2.64 0 4 C-0.99 4 -1.98 4 -3 4 C-3.33 4.99 -3.66 5.98 -4 7 C-6.31 6.67 -8.62 6.34 -11 6 C-11.33 4.35 -11.66 2.7 -12 1 C-7.67265609 -1.22923777 -4.71599818 -0.92470553 0 0 Z " fill="#99C63A" transform="translate(60,34)"/>
<path d="M0 0 C7.55681999 1.32944055 13.6201079 3.7467386 20 8 C15.78121808 8.19622241 12.82989106 7.80230168 9 6 C9.66 7.65 10.32 9.3 11 11 C5.84563204 9.63560848 2.93351599 6.27426385 0 2 C0 1.34 0 0.68 0 0 Z " fill="#177EB3" transform="translate(36,126)"/>
<path d="M0 0 C4.62752235 1.15688059 7.04126807 2.98565214 10.75 5.9375 C9.76 6.2675 8.77 6.5975 7.75 6.9375 C7.09 6.6075 6.43 6.2775 5.75 5.9375 C5.75 5.2775 5.75 4.6175 5.75 3.9375 C4.1 4.2675 2.45 4.5975 0.75 4.9375 C0.75 5.5975 0.75 6.2575 0.75 6.9375 C-1.56 6.9375 -3.87 6.9375 -6.25 6.9375 C-6.4375 4.5625 -6.4375 4.5625 -6.25 1.9375 C-3.25 -0.0625 -3.25 -0.0625 0 0 Z " fill="#A5C851" transform="translate(70.25,24.0625)"/>
<path d="M0 0 C0.33 0.66 0.66 1.32 1 2 C-0.1875 4.25 -0.1875 4.25 -2 7 C-2.680625 8.0725 -3.36125 9.145 -4.0625 10.25 C-6 13 -6 13 -8 14 C-8.433125 15.11375 -8.433125 15.11375 -8.875 16.25 C-10.13982814 19.34180211 -11.89845967 21.4239183 -14 24 C-14.33 24.99 -14.66 25.98 -15 27 C-15.66 27 -16.32 27 -17 27 C-17 27.99 -17 28.98 -17 30 C-17.66 30 -18.32 30 -19 30 C-16.04084227 22.10891272 -12.35315009 15.91703385 -6.97265625 9.41015625 C-4.4871548 6.37341487 -2.24020189 3.22029021 0 0 Z " fill="#EAF7D6" transform="translate(117,68)"/>
<path d="M0 0 C2.97 0.33 5.94 0.66 9 1 C9 1.66 9 2.32 9 3 C9.9075 3.268125 10.815 3.53625 11.75 3.8125 C14.72991834 4.90131632 16.68590359 5.86391101 19 8 C19 8.66 19 9.32 19 10 C20.32 10 21.64 10 23 10 C23 10.99 23 11.98 23 13 C17.25 11.125 17.25 11.125 15 10 C15 9.34 15 8.68 15 8 C14.41992188 7.82984375 13.83984375 7.6596875 13.2421875 7.484375 C8.20835789 5.92272489 4.18684517 4.22065013 0 1 C0 0.67 0 0.34 0 0 Z " fill="#F0FAD8" transform="translate(83,31)"/>
<path d="M0 0 C1.32 0.33 2.64 0.66 4 1 C4.66 4.63 5.32 8.26 6 12 C6.66 12 7.32 12 8 12 C7.67 13.32 7.34 14.64 7 16 C5.68 16 4.36 16 3 16 C1.35199144 12.33552568 0.66419027 9.18796534 0.375 5.1875 C0.30023437 4.21167969 0.22546875 3.23585938 0.1484375 2.23046875 C0.09945313 1.49441406 0.05046875 0.75835937 0 0 Z " fill="#2188B8" transform="translate(19,100)"/>
<path d="M0 0 C4.02634805 1.34211602 6.03685485 3.03685485 9 6 C11.28227295 7.45235551 13.61523031 8.71589324 16 10 C14.68554313 15.98808129 11.38808974 19.03429323 7 23 C7 22.01 7 21.02 7 20 C7.66 19.4225 8.32 18.845 9 18.25 C11.38277431 16.03245411 11.38277431 16.03245411 11.25 12.25 C11.1675 11.1775 11.085 10.105 11 9 C8.69 8.01 6.38 7.02 4 6 C4 5.34 4 4.68 4 4 C3.34 4 2.68 4 2 4 C1.34 2.68 0.68 1.36 0 0 Z " fill="#B6D179" transform="translate(109,47)"/>
<path d="M0 0 C3.78995975 0.59654026 6.70356326 1.70067487 10.08203125 3.50390625 C11.01337891 3.99697266 11.94472656 4.49003906 12.90429688 4.99804688 C13.86400391 5.51431641 14.82371094 6.03058594 15.8125 6.5625 C16.79154297 7.08263672 17.77058594 7.60277344 18.77929688 8.13867188 C21.1893066 9.42009168 23.59600219 10.70734711 26 12 C25.01 12.66 24.02 13.32 23 14 C21.9790625 13.3503125 21.9790625 13.3503125 20.9375 12.6875 C18.02391666 10.92879358 18.02391666 10.92879358 14.8125 9.6875 C2.23354805 4.4670961 2.23354805 4.4670961 0 0 Z " fill="#D2F09D" transform="translate(67,51)"/>
<path d="M0 0 C1.66280956 0.47508845 3.32559902 0.95024739 4.98828125 1.42578125 C6.90816171 1.97378596 8.82905667 2.51823272 10.75 3.0625 C12.84569226 3.66702661 14.93078744 4.31026248 17 5 C17 5.99 17 6.98 17 8 C19.31 8 21.62 8 24 8 C24 9.65 24 11.3 24 13 C19.59343549 11.68196508 15.93008133 9.94204143 12 7.5625 C8.07027809 5.19340984 4.12701077 3.00823292 0 1 C0 0.67 0 0.34 0 0 Z " fill="#A2C658" transform="translate(63,47)"/>
<path d="M0 0 C0.33 0.66 0.66 1.32 1 2 C0.0625 4.125 0.0625 4.125 -1 6 C-1.66 6 -2.32 6 -3 6 C-4.52299523 8.93720508 -5.80100302 11.9168649 -7 15 C-4.03 15.495 -4.03 15.495 -1 16 C-0.75 23.625 -0.75 23.625 -3 27 C-2.505 22.545 -2.505 22.545 -2 18 C-4.31 17.67 -6.62 17.34 -9 17 C-8.67 14.03 -8.34 11.06 -8 8 C-7.34 8 -6.68 8 -6 8 C-6 7.34 -6 6.68 -6 6 C-4.68 5.67 -3.36 5.34 -2 5 C-2 3.68 -2 2.36 -2 1 C-1.34 0.67 -0.68 0.34 0 0 Z " fill="#AAE7F1" transform="translate(127,69)"/>
<path d="M0 0 C0.99 0.33 1.98 0.66 3 1 C1.77023438 2.12148438 1.77023438 2.12148438 0.515625 3.265625 C-0.57296139 4.26036773 -1.66150055 5.25516213 -2.75 6.25 C-3.55824219 6.98669922 -3.55824219 6.98669922 -4.3828125 7.73828125 C-7.3243716 10.42873164 -10.2073768 13.1531511 -13 16 C-13.66 15.67 -14.32 15.34 -15 15 C-13.4614092 11.19263971 -11.12165284 9.06130455 -8.0625 6.375 C-7.18722656 5.59898438 -6.31195313 4.82296875 -5.41015625 4.0234375 C-3 2 -3 2 0 0 Z " fill="#56ACD1" transform="translate(43,29)"/>
<path d="M0 0 C0.33 0 0.66 0 1 0 C1 7.92 1 15.84 1 24 C0.67 24 0.34 24 0 24 C-0.33 20.04 -0.66 16.08 -1 12 C-1.33 16.95 -1.66 21.9 -2 27 C-2.33 27 -2.66 27 -3 27 C-3.24179104 4.86268657 -3.24179104 4.86268657 0 0 Z " fill="#2793BF" transform="translate(18,65)"/>
<path d="M0 0 C0.33 0 0.66 0 1 0 C1.61642361 7.70529515 -0.31885144 14.78829748 -3 22 C-3.66 22.33 -4.32 22.66 -5 23 C-6.05352843 25.30965848 -7.05719096 27.6429774 -8 30 C-8.99 30 -9.98 30 -11 30 C-9.54179935 26.04098525 -7.62745043 22.57489936 -5.5 18.9375 C-2.07499836 12.69986708 -0.62260951 7.0520057 0 0 Z " fill="#A9E5F3" transform="translate(141,86)"/>
<path d="M0 0 C1.48924699 3.97132531 1.01916816 7.96965318 0 12 C-1.12921392 14.34757631 -2.31899977 15.96242397 -4 18 C-4.66 18 -5.32 18 -6 18 C-5.34849138 11.87581896 -4.49644342 4.49644342 0 0 Z " fill="#8FB752" transform="translate(31,53)"/>
<path d="M0 0 C4.00993615 1.82269825 7.38672985 3.38162594 10 7 C10.375 10.625 10.375 10.625 10 14 C9.34 14.66 8.68 15.32 8 16 C7.67 13.03 7.34 10.06 7 7 C4.36 6.34 1.72 5.68 -1 5 C-1 5.66 -1 6.32 -1 7 C-4.875 5.25 -4.875 5.25 -6 3 C-4.02 3 -2.04 3 0 3 C0 2.01 0 1.02 0 0 Z " fill="#D8EDC0" transform="translate(55,83)"/>
<path d="M0 0 C0.33 0 0.66 0 1 0 C1.5877836 10.38417695 -0.9824498 20.0832651 -8 28 C-8.66 28 -9.32 28 -10 28 C-8.98999095 25.35843787 -7.91399216 22.83189376 -6.625 20.3125 C-3.37742543 13.69244415 -0.64271954 7.39127469 0 0 Z " fill="#69C7DF" transform="translate(126,86)"/>
<path d="M0 0 C1.65 0 3.3 0 5 0 C3.68 0.33 2.36 0.66 1 1 C0.92652344 1.62777344 0.85304688 2.25554687 0.77734375 2.90234375 C0 5 0 5 -1.99609375 5.94140625 C-3.20458984 6.24884766 -3.20458984 6.24884766 -4.4375 6.5625 C-8.45946065 7.56530179 -8.45946065 7.56530179 -11 11 C-11.38499891 12.65549531 -11.72793135 14.3222433 -12 16 C-12.33 16 -12.66 16 -13 16 C-13.33 13.36 -13.66 10.72 -14 8 C-13.34 8 -12.68 8 -12 8 C-12 7.01 -12 6.02 -12 5 C-10.5422647 4.664061 -9.08378894 4.33133376 -7.625 4 C-6.40683594 3.7215625 -6.40683594 3.7215625 -5.1640625 3.4375 C-3 3 -3 3 -1 3 C-0.67 2.01 -0.34 1.02 0 0 Z " fill="#8CB655" transform="translate(57,66)"/>
<path d="M0 0 C0.33 0 0.66 0 1 0 C2.70084819 5.32932432 3.52013969 10.43109483 4 16 C2.68 16 1.36 16 0 16 C0 13.69 0 11.38 0 9 C-1.32 9 -2.64 9 -4 9 C-3.67 8.01 -3.34 7.02 -3 6 C-2.01 6.33 -1.02 6.66 0 7 C0 4.69 0 2.38 0 0 Z " fill="#6EA842" transform="translate(81,115)"/>
<path d="M0 0 C0.66 0.33 1.32 0.66 2 1 C1.67 2.32 1.34 3.64 1 5 C2.98 5.99 4.96 6.98 7 8 C5.4375 9.25 5.4375 9.25 3 10 C1.27637684 8.99184306 -0.44485449 7.97749647 -2.125 6.8984375 C-5.22259424 5.41417359 -7.78275588 6.17991817 -11 7 C-11.99 7.495 -11.99 7.495 -13 8 C-12 5 -12 5 -9 3 C-5.3125 3.375 -5.3125 3.375 -2 4 C-1.34 2.68 -0.68 1.36 0 0 Z " fill="#CDE399" transform="translate(61,26)"/>
<path d="M0 0 C3.44868587 4.08733141 6.23793154 8.43805907 9 13 C7.02 13 5.04 13 3 13 C2.67 13.66 2.34 14.32 2 15 C1.34 13.35 0.68 11.7 0 10 C0.66 10 1.32 10 2 10 C2.33 8.68 2.66 7.36 3 6 C2.34 6 1.68 6 1 6 C0.67 4.02 0.34 2.04 0 0 Z " fill="#3793C2" transform="translate(24,106)"/>
<path d="M0 0 C2.3431213 0.25561323 4.67843403 0.59270772 7 1 C7.33 1.66 7.66 2.32 8 3 C7.05125 2.979375 6.1025 2.95875 5.125 2.9375 C2.09333717 2.77448174 2.09333717 2.77448174 0 4 C-0.65555119 6.52733235 -0.65555119 6.52733235 -1 9 C0.65 8.67 2.3 8.34 4 8 C4 9.32 4 10.64 4 12 C0.62537285 11.45276317 -1.08235 10.9451 -4 9 C-3.35455571 5.51460083 -1.89865603 2.97180943 0 0 Z " fill="#A7C758" transform="translate(65,22)"/>
<path d="M0 0 C0.66 0.33 1.32 0.66 2 1 C-3.625 6 -3.625 6 -7 6 C-7.33 6.99 -7.66 7.98 -8 9 C-10.375 9.125 -10.375 9.125 -13 9 C-15.5654594 6.4345406 -15.54046087 4.52313332 -16 1 C-15.01 1.33 -14.02 1.66 -13 2 C-13 3.65 -13 5.3 -13 7 C-11.68 7 -10.36 7 -9 7 C-9 6.01 -9 5.02 -9 4 C-8.43410156 3.79503906 -7.86820313 3.59007813 -7.28515625 3.37890625 C-6.55167969 3.10949219 -5.81820312 2.84007813 -5.0625 2.5625 C-4.33160156 2.29566406 -3.60070312 2.02882813 -2.84765625 1.75390625 C-1.01694322 1.14613052 -1.01694322 1.14613052 0 0 Z " fill="#9CBE78" transform="translate(61,100)"/>
<path d="M0 0 C4.75 1.875 4.75 1.875 7 3 C7 3.66 7 4.32 7 5 C7.928125 5.268125 8.85625 5.53625 9.8125 5.8125 C12.85184289 6.94480421 13.90073617 7.69900511 16 10 C14.04096255 9.52372025 12.08278903 9.04388577 10.125 8.5625 C9.03445312 8.29566406 7.94390625 8.02882813 6.8203125 7.75390625 C4 7 4 7 2 6 C1.27306096 4.02111039 0.60183749 2.02045442 0 0 Z " fill="#B0CE6B" transform="translate(91,36)"/>
<path d="M0 0 C0.33 0 0.66 0 1 0 C1.74521523 7.15406617 0.34707015 11.30223306 -4 17 C-5.44099828 12.67700515 -4.29835249 9.28531371 -3 5 C-1.4375 1.9375 -1.4375 1.9375 0 0 Z " fill="#EFFAEC" transform="translate(97,98)"/>
<path d="M0 0 C-2.74997221 1.4731994 -4.89619499 2.22404875 -8 3 C-8 6.96 -8 10.92 -8 15 C-9.32 13.68 -10.64 12.36 -12 11 C-11.93755468 7.44061695 -11.75763448 5.03313793 -9.625 2.125 C-6.47950819 -0.05264818 -3.69462905 -0.09985484 0 0 Z " fill="#D4E9B9" transform="translate(57,71)"/>
<path d="M0 0 C0.33 0.99 0.66 1.98 1 3 C0.01 3.33 -0.98 3.66 -2 4 C-2.69040574 5.65697379 -3.3530635 7.3255761 -4 9 C-5.28667172 10.70294787 -6.61096733 12.37946188 -8 14 C-8.54990817 8.36344126 -7.18170608 5.50741695 -4 1 C-1.75 0.0625 -1.75 0.0625 0 0 Z " fill="#92BC40" transform="translate(100,69)"/>
<path d="M0 0 C9.59453303 2.70615034 9.59453303 2.70615034 13 7 C9.04 8.98 9.04 8.98 5 11 C5 9.68 5 8.36 5 7 C5.66 7 6.32 7 7 7 C6.67 6.34 6.34 5.68 6 5 C5.360625 4.87625 4.72125 4.7525 4.0625 4.625 C2 4 2 4 0.87109375 1.9609375 C0.58363281 1.31382813 0.29617187 0.66671875 0 0 Z " fill="#92BF3D" transform="translate(76,58)"/>
<path d="M0 0 C0.33 0 0.66 0 1 0 C1.12117188 1.12277344 1.24234375 2.24554688 1.3671875 3.40234375 C2.77412368 16.37603957 2.77412368 16.37603957 6 29 C5.01 29 4.02 29 3 29 C3 27.02 3 25.04 3 23 C2.34 23 1.68 23 1 23 C0.15199233 15.307359 -0.12152487 7.73708326 0 0 Z " fill="#DAF0CE" transform="translate(22,77)"/>
<path d="M0 0 C0.33 0 0.66 0 1 0 C1.15569823 9.18619583 1.15569823 9.18619583 0 13 C-0.99 13.495 -0.99 13.495 -2 14 C-3.13350534 16.01669827 -3.13350534 16.01669827 -4 18 C-4.51137226 11.09647445 -2.86964374 6.25172386 0 0 Z " fill="#BAE8ED" transform="translate(25,55)"/>
<path d="M0 0 C0.70125 0.144375 1.4025 0.28875 2.125 0.4375 C5.07556141 1.01478375 8.03270151 1.51695141 11 2 C10.34 3.32 9.68 4.64 9 6 C4.545 5.01 4.545 5.01 0 4 C0 2.68 0 1.36 0 0 Z " fill="#F6FCE7" transform="translate(44,96)"/>
<path d="M0 0 C0.66 0 1.32 0 2 0 C-0.05764921 6.45353615 -2.42383482 12.7361263 -5 19 C-5.33 19 -5.66 19 -6 19 C-6.37183099 11.43943662 -6.37183099 11.43943662 -4.625 9.375 C-3.820625 8.694375 -3.820625 8.694375 -3 8 C-2.27306096 6.02111039 -1.60183749 4.02045442 -1 2 C-0.67 1.34 -0.34 0.68 0 0 Z " fill="#C4EFF7" transform="translate(21,49)"/>
<path d="M0 0 C0.99 0.33 1.98 0.66 3 1 C1.95644881 5.86990553 -0.33031053 9.82135561 -3 14 C-3.33 14 -3.66 14 -4 14 C-3.8864371 12.35333797 -3.75882619 10.70763918 -3.625 9.0625 C-3.55539063 8.14597656 -3.48578125 7.22945312 -3.4140625 6.28515625 C-3.27742188 5.53105469 -3.14078125 4.77695312 -3 4 C-2.34 3.67 -1.68 3.34 -1 3 C-0.67 2.01 -0.34 1.02 0 0 Z " fill="#8DBC3F" transform="translate(35,48)"/>
<path d="M0 0 C5.625 -0.25 5.625 -0.25 9 2 C11.12337771 2.36433373 11.12337771 2.36433373 13.44921875 2.4140625 C14.29677734 2.45273438 15.14433594 2.49140625 16.01757812 2.53125 C17.33918945 2.57765625 17.33918945 2.57765625 18.6875 2.625 C19.58017578 2.66367188 20.47285156 2.70234375 21.39257812 2.7421875 C23.5948462 2.83640218 25.79710722 2.92201588 28 3 C28 3.33 28 3.66 28 4 C20.41 4 12.82 4 5 4 C5 3.34 5 2.68 5 2 C3.35 1.67 1.7 1.34 0 1 C0 0.67 0 0.34 0 0 Z " fill="#1584B7" transform="translate(59,140)"/>
<path d="M0 0 C3.29679683 3.29679683 4 5.28312744 4 10 C4.66 10 5.32 10 6 10 C6.66 11.65 7.32 13.3 8 15 C7.01 14.67 6.02 14.34 5 14 C5 13.34 5 12.68 5 12 C4.01 12 3.02 12 2 12 C2 10.68 2 9.36 2 8 C1.34 8 0.68 8 0 8 C0 5.36 0 2.72 0 0 Z " fill="#B3E0EE" transform="translate(18,106)"/>
<path d="M0 0 C1.0725 0.639375 2.145 1.27875 3.25 1.9375 C5.80822182 3.40601273 8.05340886 4.52854542 11 5 C10.67 6.32 10.34 7.64 10 9 C10 8.34 10 7.68 10 7 C9.319375 7.103125 8.63875 7.20625 7.9375 7.3125 C3.72577459 6.86444411 1.23080948 4.60699324 -2 2 C-1.34 1.34 -0.68 0.68 0 0 Z " fill="#CEEC96" transform="translate(100,54)"/>
<path d="M0 0 C2.31 0 4.62 0 7 0 C7 0.66 7 1.32 7 2 C7.99 2 8.98 2 10 2 C10.33 4.31 10.66 6.62 11 9 C8.20127563 6.47211993 6.54226981 4.79588866 6 1 C2.42895561 2.87949705 0.45255699 4.17053157 -1 8 C-2 6 -2 6 -1.0625 2.875 C-0.5365625 1.451875 -0.5365625 1.451875 0 0 Z " fill="#BEEFF7" transform="translate(130,61)"/>
<path d="M0 0 C3.30076145 0.93417777 4.13171772 1.50635601 6.3125 3.9375 C5.72082031 3.85371094 5.12914062 3.76992188 4.51953125 3.68359375 C0.21310543 3.12860576 -3.44302644 2.70523348 -7.6875 3.9375 C-7.3575 5.5875 -7.0275 7.2375 -6.6875 8.9375 C-7.3475 8.9375 -8.0075 8.9375 -8.6875 8.9375 C-9.0175 7.2875 -9.3475 5.6375 -9.6875 3.9375 C-6.24513285 1.16681425 -4.49286418 -0.07615024 0 0 Z " fill="#A6C75E" transform="translate(55.6875,31.0625)"/>
<path d="M0 0 C0 3 0 3 -1.6796875 4.9375 C-2.40414062 5.618125 -3.12859375 6.29875 -3.875 7 C-6.30084581 9.295424 -8.13500096 11.20250144 -10 14 C-13.125 14.6875 -13.125 14.6875 -16 15 C-12.81240258 11.67958602 -9.37914601 8.69646062 -5.90625 5.68359375 C-3.85096483 3.86837262 -1.89897779 1.97810186 0 0 Z " fill="#53B4CF" transform="translate(115,114)"/>
<path d="M0 0 C0.33 0.66 0.66 1.32 1 2 C1.66 2 2.32 2 3 2 C1.41037341 6.03520597 -0.28232318 10.01811282 -2 14 C-2.33 14 -2.66 14 -3 14 C-2.88512252 12.41590006 -2.75765492 10.83271037 -2.625 9.25 C-2.55539063 8.36828125 -2.48578125 7.4865625 -2.4140625 6.578125 C-2.00149945 4.00933618 -1.28839043 2.24158985 0 0 Z " fill="#A0BA77" transform="translate(94,96)"/>
<path d="M0 0 C0.66 0 1.32 0 2 0 C1.67 1.98 1.34 3.96 1 6 C3.31 6.33 5.62 6.66 8 7 C7.67 9.97 7.34 12.94 7 16 C6.67 16 6.34 16 6 16 C6 13.69 6 11.38 6 9 C3.03 8.505 3.03 8.505 0 8 C0 5.36 0 2.72 0 0 Z " fill="#E0FBFC" transform="translate(117,80)"/>
<path d="M0 0 C1.12377697 3.30435084 0.89554742 5.0506862 -0.4375 8.25 C-0.72496094 8.95640625 -1.01242188 9.6628125 -1.30859375 10.390625 C-1.53675781 10.92171875 -1.76492187 11.4528125 -2 12 C-2.99 11.34 -3.98 10.68 -5 10 C-4.49701212 5.59885603 -2.91227269 3.28804981 0 0 Z " fill="#94BA48" transform="translate(106,74)"/>
<path d="M0 0 C2.31 0 4.62 0 7 0 C8.85776765 3.13498292 9.20140476 5.37471432 9 9 C8.34 8.67 7.68 8.34 7 8 C7 7.34 7 6.68 7 6 C3.535 4.02 3.535 4.02 0 2 C0 1.34 0 0.68 0 0 Z " fill="#E3F2C0" transform="translate(117,51)"/>
<path d="M0 0 C0.99 0 1.98 0 3 0 C3 0.99 3 1.98 3 3 C2.030625 3.268125 1.06125 3.53625 0.0625 3.8125 C-0.948125 4.204375 -1.95875 4.59625 -3 5 C-3.33 5.99 -3.66 6.98 -4 8 C-5.65 8.33 -7.3 8.66 -9 9 C-9 8.01 -9 7.02 -9 6 C-7.68 6 -6.36 6 -5 6 C-5 5.34 -5 4.68 -5 4 C-4.360625 3.71125 -3.72125 3.4225 -3.0625 3.125 C-0.84793921 2.17176549 -0.84793921 2.17176549 0 0 Z " fill="#36A1C8" transform="translate(110,131)"/>
<path d="M0 0 C0.33 0 0.66 0 1 0 C0.48517081 5.852795 -0.45357192 11.3297637 -2 17 C-2.33 17 -2.66 17 -3 17 C-3.34548714 10.66606918 -2.29342747 5.89738492 0 0 Z " fill="#8EB057" transform="translate(89,95)"/>
<path d="M0 0 C4.571279 0.54855348 8.67435795 1.41744803 13 3 C13 3.33 13 3.66 13 4 C9.16774573 4.08912219 5.73437848 3.87867729 2 3 C2 3.66 2 4.32 2 5 C2.99 5.66 3.98 6.32 5 7 C3.35 6.67 1.7 6.34 0 6 C-1.125 2.25 -1.125 2.25 0 0 Z " fill="#D4E9BB" transform="translate(42,94)"/>
<path d="M0 0 C0.99 0.33 1.98 0.66 3 1 C2.01 5.29 1.02 9.58 0 14 C-0.99 13.01 -1.98 12.02 -3 11 C-2.01 7.37 -1.02 3.74 0 0 Z " fill="#C6E5A2" transform="translate(89,76)"/>
<path d="M0 0 C1.98 0 3.96 0 6 0 C6 0.66 6 1.32 6 2 C4.35 2 2.7 2 1 2 C0.7525 2.61875 0.505 3.2375 0.25 3.875 C-1.20628639 6.35068687 -2.37812506 6.95125002 -5 8 C-4.67 6.35 -4.34 4.7 -4 3 C-2.68 2.67 -1.36 2.34 0 2 C0 1.34 0 0.68 0 0 Z " fill="#F3FADE" transform="translate(64,20)"/>
<path d="M0 0 C4.44209357 -0.10834375 8.61414671 0.29826347 13 1 C13.33 1.99 13.66 2.98 14 4 C12.0412957 3.85923685 10.08303907 3.7122324 8.125 3.5625 C7.03445312 3.48128906 5.94390625 3.40007812 4.8203125 3.31640625 C2 3 2 3 0 2 C0 1.34 0 0.68 0 0 Z " fill="#72A54D" transform="translate(55,127)"/>
<path d="M0 0 C0.33 0.99 0.66 1.98 1 3 C1.66 3 2.32 3 3 3 C3.33 2.01 3.66 1.02 4 0 C3.67 2.97 3.34 5.94 3 9 C1.35 9.33 -0.3 9.66 -2 10 C-1.34 6.7 -0.68 3.4 0 0 Z " fill="#D4E2C2" transform="translate(88,112)"/>
<path d="M0 0 C0.66 0 1.32 0 2 0 C0.37621488 4.72373854 -2.10993018 8.94181834 -5 13 C-5.33 13 -5.66 13 -6 13 C-6 11.02 -6 9.04 -6 7 C-5.34 7 -4.68 7 -4 7 C-4 6.34 -4 5.68 -4 5 C-3.34 5 -2.68 5 -2 5 C-1.855625 4.360625 -1.71125 3.72125 -1.5625 3.0625 C-1 1 -1 1 0 0 Z " fill="#21AACE" transform="translate(133,106)"/>
<path d="M0 0 C3.96 0.33 7.92 0.66 12 1 C12 1.33 12 1.66 12 2 C9.69 2.33 7.38 2.66 5 3 C5 3.99 5 4.98 5 6 C3.68 6 2.36 6 1 6 C0.67 4.02 0.34 2.04 0 0 Z " fill="#E2F2D6" transform="translate(47,101)"/>
<path d="M0 0 C1.35814777 4.0744433 -0.05254238 6.81468116 -1.4375 10.6875 C-1.68048828 11.38939453 -1.92347656 12.09128906 -2.17382812 12.81445312 C-2.7744944 14.54578532 -3.38619719 16.27328137 -4 18 C-5.37024181 13.29306247 -5.32177226 8.54682948 -3.0390625 4.1484375 C-2.0866534 2.72320119 -1.05005248 1.35490642 0 0 Z " fill="#D2EECA" transform="translate(30,49)"/>
<path d="M0 0 C0.99 0.495 0.99 0.495 2 1 C2 2.32 2 3.64 2 5 C3.98 4.67 5.96 4.34 8 4 C8.125 6.875 8.125 6.875 8 10 C7.34 10.66 6.68 11.32 6 12 C6 10.68 6 9.36 6 8 C5.195625 7.690625 4.39125 7.38125 3.5625 7.0625 C1 6 1 6 0 5 C-0.04063832 3.33382885 -0.042721 1.66611905 0 0 Z " fill="#A0C469" transform="translate(62,67)"/>
<path d="M0 0 C0.66 0 1.32 0 2 0 C2.33 1.32 2.66 2.64 3 4 C4.32 4 5.64 4 7 4 C7.33 4.99 7.66 5.98 8 7 C5.36 6.34 2.72 5.68 0 5 C0 4.34 0 3.68 0 3 C-1.98 3.33 -3.96 3.66 -6 4 C-6 3.34 -6 2.68 -6 2 C-4.02 2 -2.04 2 0 2 C0 1.34 0 0.68 0 0 Z " fill="#D1E8A5" transform="translate(44,36)"/>
<path d="M0 0 C3.5786304 1.65167557 6.74820188 3.78286492 10 6 C9.01 6.33 8.02 6.66 7 7 C6.67 7.66 6.34 8.32 6 9 C0.42857143 3.85714286 0.42857143 3.85714286 0 0 Z " fill="#CDEFE5" transform="translate(32,115)"/>
<path d="M0 0 C1.37478516 0.01740234 1.37478516 0.01740234 2.77734375 0.03515625 C3.69644531 0.04417969 4.61554687 0.05320312 5.5625 0.0625 C6.27277344 0.07410156 6.98304687 0.08570312 7.71484375 0.09765625 C7.71484375 1.08765625 7.71484375 2.07765625 7.71484375 3.09765625 C7.01617187 3.06285156 6.3175 3.02804688 5.59765625 2.9921875 C4.68757813 2.96511719 3.7775 2.93804687 2.83984375 2.91015625 C1.93492188 2.87535156 1.03 2.84054688 0.09765625 2.8046875 C-0.68867187 2.90136719 -1.475 2.99804688 -2.28515625 3.09765625 C-2.94515625 4.08765625 -3.60515625 5.07765625 -4.28515625 6.09765625 C-3.21536826 0.1374089 -3.21536826 0.1374089 0 0 Z " fill="#EAF7D8" transform="translate(57.28515625,74.90234375)"/>
<path d="M0 0 C2.31 0.33 4.62 0.66 7 1 C7 1.99 7 2.98 7 4 C7.763125 3.938125 8.52625 3.87625 9.3125 3.8125 C12 4 12 4 13.8125 5.375 C15 7 15 7 15 9 C13.0625 8.625 13.0625 8.625 11 8 C10.67 7.34 10.34 6.68 10 6 C8.88625 5.525625 7.7725 5.05125 6.625 4.5625 C3.56642783 3.24414993 2.03127817 2.50922597 0 0 Z " fill="#A8CA5F" transform="translate(86,45)"/>
<path d="M0 0 C0.33 0.66 0.66 1.32 1 2 C1.66 2 2.32 2 3 2 C5.42857143 9.42857143 5.42857143 9.42857143 4 13 C0.87506296 9.87506296 0.04088867 7.08354985 -0.125 2.6875 C-0.08375 1.800625 -0.0425 0.91375 0 0 Z " fill="#7BAE57" transform="translate(27,96)"/>
<path d="M0 0 C0.33 0.66 0.66 1.32 1 2 C0.67 2.66 0.34 3.32 0 4 C0.9590625 4.2165625 0.9590625 4.2165625 1.9375 4.4375 C4 5 4 5 5 6 C5.04092937 8.33297433 5.04241723 10.66705225 5 13 C4.67 13 4.34 13 4 13 C3.67 11.02 3.34 9.04 3 7 C0.69 6.67 -1.62 6.34 -4 6 C-3.67 5.01 -3.34 4.02 -3 3 C-2.34 3 -1.68 3 -1 3 C-0.67 2.01 -0.34 1.02 0 0 Z " fill="#30A7C7" transform="translate(123,79)"/>
<path d="M0 0 C3.48331435 3.01887244 4.79157144 5.56909529 6 10 C3.36 10 0.72 10 -2 10 C-2 9.67 -2 9.34 -2 9 C-0.35 9 1.3 9 3 9 C3 8.01 3 7.02 3 6 C2.34 6 1.68 6 1 6 C0.67 4.02 0.34 2.04 0 0 Z " fill="#66C2D8" transform="translate(144,76)"/>
<path d="M0 0 C1.98 0.99 3.96 1.98 6 3 C5.67 4.65 5.34 6.3 5 8 C2.03 7.505 2.03 7.505 -1 7 C0.32 6.67 1.64 6.34 3 6 C3 5.01 3 4.02 3 3 C2.01 3 1.02 3 0 3 C0 2.01 0 1.02 0 0 Z " fill="#D8EEB9" transform="translate(62,72)"/>
<path d="M0 0 C2.64 0.66 5.28 1.32 8 2 C7.67 3.32 7.34 4.64 7 6 C4.36 5.34 1.72 4.68 -1 4 C-0.67 2.68 -0.34 1.36 0 0 Z " fill="#99C730" transform="translate(62,38)"/>
<path d="M0 0 C0.99 0.33 1.98 0.66 3 1 C0.03 3.64 -2.94 6.28 -6 9 C-6.99 8.34 -7.98 7.68 -9 7 C-7.57277341 5.8001722 -6.13284224 4.6154424 -4.6875 3.4375 C-3.88699219 2.77621094 -3.08648437 2.11492188 -2.26171875 1.43359375 C-1.51535156 0.96050781 -0.76898438 0.48742187 0 0 Z " fill="#7DB7C9" transform="translate(43,29)"/>
<path d="M0 0 C0.66 0 1.32 0 2 0 C1.67 2.97 1.34 5.94 1 9 C0.01 8.67 -0.98 8.34 -2 8 C-2.125 5.125 -2.125 5.125 -2 2 C-1.34 1.34 -0.68 0.68 0 0 Z " fill="#3199C1" transform="translate(22,54)"/>
<path d="M0 0 C0.82757813 0.42925781 0.82757813 0.42925781 1.671875 0.8671875 C4.15905289 2.07739151 6.67747753 3.1095306 9.25 4.125 C10.14203125 4.47820312 11.0340625 4.83140625 11.953125 5.1953125 C12.62859375 5.46085938 13.3040625 5.72640625 14 6 C14 6.33 14 6.66 14 7 C8.72250715 6.46148032 4.74354436 5.22656164 0 3 C0 2.01 0 1.02 0 0 Z " fill="#CBF0F9" transform="translate(40,135)"/>
<path d="M0 0 C0 0.66 0 1.32 0 2 C0.969375 2.12375 1.93875 2.2475 2.9375 2.375 C4.4534375 2.684375 4.4534375 2.684375 6 3 C6.33 3.66 6.66 4.32 7 5 C4.39517051 5.94721072 2.69325299 6.30222393 0.109375 5.17578125 C-1.62582873 4.17063275 -3.31640423 3.0893855 -5 2 C-2 0 -2 0 0 0 Z " fill="#C3E28A" transform="translate(53,41)"/>
<path d="M0 0 C3.39417765 3.12621626 5.6062718 5.56541027 7 10 C4.625 9.5 4.625 9.5 2 8 C0.91758097 5.33474712 0.50727893 2.8592085 0 0 Z " fill="#54C2DC" transform="translate(137,66)"/>
<path d="M0 0 C1.65 0 3.3 0 5 0 C3.68 0.33 2.36 0.66 1 1 C0.67 2.32 0.34 3.64 0 5 C-6.0546875 5.9765625 -6.0546875 5.9765625 -8 6 C-8.66 5.34 -9.32 4.68 -10 4 C-5.545 3.505 -5.545 3.505 -1 3 C-0.67 2.01 -0.34 1.02 0 0 Z " fill="#A2C167" transform="translate(57,66)"/>
<path d="M0 0 C1.10844919 3.32534757 0.84454356 5.62182575 0 9 C-0.99 8.67 -1.98 8.34 -3 8 C-3.33 8.99 -3.66 9.98 -4 11 C-3.56179109 6.44262737 -3.14958831 3.42346555 0 0 Z " fill="#9BBB5E" transform="translate(31,53)"/>
<path d="M0 0 C2.875 -0.1875 2.875 -0.1875 6 0 C6.66 0.99 7.32 1.98 8 3 C6.02 3.99 6.02 3.99 4 5 C4 4.34 4 3.68 4 3 C2.68 3 1.36 3 0 3 C0 2.01 0 1.02 0 0 Z " fill="#95C331" transform="translate(43,45)"/>
<path d="M0 0 C4.67105792 1.55701931 8.08705685 4.08447373 12 7 C11.01 7.495 11.01 7.495 10 8 C2.38918919 5.23243243 2.38918919 5.23243243 0 2 C0 1.34 0 0.68 0 0 Z " fill="#A4C457" transform="translate(81,31)"/>
<path d="M0 0 C1 2 1 2 0.0625 5.125 C-0.288125 6.07375 -0.63875 7.0225 -1 8 C-2.32 7.67 -3.64 7.34 -5 7 C-4.60196439 4.11424181 -4.20990931 3.17810487 -1.9375 1.25 C-1.298125 0.8375 -0.65875 0.425 0 0 Z " fill="#D8F5F0" transform="translate(45,30)"/>
<path d="M0 0 C4.47238653 1.41807378 8.71146306 3.11304374 13 5 C13 5.33 13 5.66 13 6 C7.36529617 6.5497272 4.61012242 4.95047835 0 2 C0 1.34 0 0.68 0 0 Z " fill="#1E8AB1" transform="translate(43,128)"/>
<path d="M0 0 C0.33 1.32 0.66 2.64 1 4 C-2.3 4 -5.6 4 -9 4 C-9.33 3.34 -9.66 2.68 -10 2 C-7.03 2.495 -7.03 2.495 -4 3 C-4 2.34 -4 1.68 -4 1 C-2.68 0.67 -1.36 0.34 0 0 Z " fill="#68A83B" transform="translate(80,127)"/>
<path d="M0 0 C0.33 1.32 0.66 2.64 1 4 C-0.8125 4.6875 -0.8125 4.6875 -3 5 C-4.75 3.6875 -4.75 3.6875 -6 2 C-6 1.34 -6 0.68 -6 0 C-3.50907189 -1.24546405 -2.58919267 -0.7767578 0 0 Z " fill="#1181B9" transform="translate(33,119)"/>
<path d="M0 0 C0.33 0.99 0.66 1.98 1 3 C1.78375 3.226875 2.5675 3.45375 3.375 3.6875 C6.48714219 5.24357109 6.65286396 5.96790476 7.8125 9.125 C8.22664606 10.41091207 8.62846444 11.70113583 9 13 C8.01 12.67 7.02 12.34 6 12 C6 10.35 6 8.7 6 7 C4.35 6.67 2.7 6.34 1 6 C0.67 4.02 0.34 2.04 0 0 Z " fill="#7AA94F" transform="translate(39,96)"/>
<path d="M0 0 C0.66 0 1.32 0 2 0 C3.23076923 6.4 3.23076923 6.4 2.0625 9.4375 C1.711875 9.953125 1.36125 10.46875 1 11 C0.34 11 -0.32 11 -1 11 C-0.67 7.37 -0.34 3.74 0 0 Z " fill="#85B352" transform="translate(65,88)"/>
<path d="M0 0 C2.97 0.33 5.94 0.66 9 1 C9.33 2.32 9.66 3.64 10 5 C5.59885603 4.49701212 3.28804981 2.91227269 0 0 Z " fill="#E3F2C2" transform="translate(83,31)"/>
<path d="M0 0 C3.63 0.33 7.26 0.66 11 1 C11 1.99 11 2.98 11 4 C6.94393835 3.53199289 3.53411321 3.12046792 0 1 C0 0.67 0 0.34 0 0 Z " fill="#A8DFE5" transform="translate(49,130)"/>
<path d="M0 0 C0.33 1.32 0.66 2.64 1 4 C1.66 4 2.32 4 3 4 C3 3.01 3 2.02 3 1 C3.66 1 4.32 1 5 1 C4.25 5.75 4.25 5.75 2 8 C1.67 7.34 1.34 6.68 1 6 C0.34 6.99 -0.32 7.98 -1 9 C-0.67 6.03 -0.34 3.06 0 0 Z " fill="#99BD60" transform="translate(88,90)"/>
<path d="M0 0 C1.2065625 0.0309375 1.2065625 0.0309375 2.4375 0.0625 C2.7675 0.7225 3.0975 1.3825 3.4375 2.0625 C1.7875 2.0625 0.1375 2.0625 -1.5625 2.0625 C-0.5725 4.0425 0.4175 6.0225 1.4375 8.0625 C-0.5 7.375 -0.5 7.375 -2.5625 6.0625 C-3.375 3.5 -3.375 3.5 -3.5625 1.0625 C-2.5625 0.0625 -2.5625 0.0625 0 0 Z " fill="#A8C27B" transform="translate(57.5625,76.9375)"/>
<path d="M0 0 C0.99 0.33 1.98 0.66 3 1 C3 2.65 3 4.3 3 6 C2.34 6 1.68 6 1 6 C0.71125 6.969375 0.4225 7.93875 0.125 8.9375 C-1 12 -1 12 -3 13 C-2.7834375 12.39671875 -2.566875 11.7934375 -2.34375 11.171875 C-1.92609375 9.97304687 -1.92609375 9.97304687 -1.5 8.75 C-1.2215625 7.96109375 -0.943125 7.1721875 -0.65625 6.359375 C0.17864861 3.76587262 0.17864861 3.76587262 0 0 Z " fill="#ACCD70" transform="translate(95,64)"/>
<path d="M0 0 C0 3.44360632 -0.79591532 4.74795392 -2.5 7.6875 C-2.9640625 8.49574219 -3.428125 9.30398437 -3.90625 10.13671875 C-4.2671875 10.75160156 -4.628125 11.36648437 -5 12 C-5.68359375 10.265625 -5.68359375 10.265625 -6 8 C-4.78515625 5.859375 -4.78515625 5.859375 -3.0625 3.75 C-2.49660156 3.04359375 -1.93070313 2.3371875 -1.34765625 1.609375 C-0.90292969 1.07828125 -0.45820313 0.5471875 0 0 Z " fill="#95D7E8" transform="translate(32,43)"/>
<path d="M0 0 C-1.07429598 0.84495189 -2.15989202 1.67554858 -3.25 2.5 C-4.15492187 3.19609375 -4.15492187 3.19609375 -5.078125 3.90625 C-7 5 -7 5 -11 5 C-11 4.34 -11 3.68 -11 3 C-10.34 3 -9.68 3 -9 3 C-9 2.34 -9 1.68 -9 1 C-3.375 -1.125 -3.375 -1.125 0 0 Z " fill="#E4F7FB" transform="translate(49,26)"/>
<path d="M0 0 C0 3 0 3 -1.3125 4.6875 C-3 6 -3 6 -6 6 C-6 4.35 -6 2.7 -6 1 C-3.92446352 0.4465236 -2.15634036 0 0 0 Z " fill="#A1C63E" transform="translate(70,25)"/>
<path d="M0 0 C0 3.60573896 -0.81707462 4.41336566 -3 7.1875 C-3.556875 7.90292969 -4.11375 8.61835937 -4.6875 9.35546875 C-5.120625 9.89816406 -5.55375 10.44085938 -6 11 C-6 7.52710626 -5.35830457 5.19201574 -4 2 C-1.875 0.625 -1.875 0.625 0 0 Z " fill="#BAD48C" transform="translate(114,70)"/>
<path d="M0 0 C3.77545388 1.09068668 6.47043472 1.9083091 9 5 C1.25 4.25 1.25 4.25 -1 2 C-0.67 1.34 -0.34 0.68 0 0 Z " fill="#A4C757" transform="translate(62,35)"/>
<path d="M0 0 C1.32 0 2.64 0 4 0 C4 0.66 4 1.32 4 2 C-4.42857143 5.42857143 -4.42857143 5.42857143 -9 5 C-6.03312999 3.35173889 -3.34373475 2.55728913 0 2 C0 1.34 0 0.68 0 0 Z " fill="#1F8FBD" transform="translate(97,138)"/>
<path d="M0 0 C2.38564077 0.57584432 4.66682784 1.22227595 7 2 C7.33 2.99 7.66 3.98 8 5 C5.69 4.67 3.38 4.34 1 4 C0.67 2.68 0.34 1.36 0 0 Z " fill="#0881BD" transform="translate(36,126)"/>
<path d="M0 0 C0 3.08401374 -0.34209098 4.03663956 -1.8125 6.625 C-2.14894531 7.23601562 -2.48539062 7.84703125 -2.83203125 8.4765625 C-4 10 -4 10 -7 11 C-5.25 6.125 -5.25 6.125 -3 5 C-1.9590934 3.35857037 -0.95495674 1.69287785 0 0 Z " fill="#45AED4" transform="translate(123,103)"/>
<path d="M0 0 C3.125 -0.1875 3.125 -0.1875 6 0 C6.33 0.99 6.66 1.98 7 3 C4.69 2.67 2.38 2.34 0 2 C-0.33 3.65 -0.66 5.3 -1 7 C-1.625 5.1875 -1.625 5.1875 -2 3 C-1.34 2.01 -0.68 1.02 0 0 Z " fill="#95BC6D" transform="translate(42,92)"/>
<path d="M0 0 C1.44096586 0.42594588 2.87768712 0.86626633 4.3125 1.3125 C5.11300781 1.55613281 5.91351563 1.79976562 6.73828125 2.05078125 C9.09964573 3.04182023 10.33879993 4.08074943 12 6 C10.37181054 5.77169299 8.7473651 5.51656424 7.125 5.25 C6.22007813 5.11078125 5.31515625 4.9715625 4.3828125 4.828125 C2 4 2 4 0.6796875 1.921875 C0.45539063 1.28765625 0.23109375 0.6534375 0 0 Z " fill="#A0C55E" transform="translate(76,58)"/>
<path d="M0 0 C0.33 0 0.66 0 1 0 C1.3125 2.8125 1.3125 2.8125 1 6 C-1.5 7.875 -1.5 7.875 -4 9 C-2.94124926 5.59687262 -1.99097846 2.98646769 0 0 Z " fill="#AECC73" transform="translate(34,45)"/>
<path d="M0 0 C7.75 0.75 7.75 0.75 10 3 C2.25 3.125 2.25 3.125 0 2 C0 1.34 0 0.68 0 0 Z " fill="#388DB1" transform="translate(54,140)"/>
<path d="M0 0 C2.29013653 3.4352048 2.17842973 4.985331 2 9 C1.01 9 0.02 9 -1 9 C-0.67 6.03 -0.34 3.06 0 0 Z " fill="#84AA67" transform="translate(83,122)"/>
<path d="M0 0 C2.09749995 2.35968744 2.96905704 3.54616994 3.1875 6.75 C3.125625 7.4925 3.06375 8.235 3 9 C2.01 9.495 2.01 9.495 1 10 C1 8.35 1 6.7 1 5 C0.34 5 -0.32 5 -1 5 C-0.67 3.35 -0.34 1.7 0 0 Z " fill="#A5C670" transform="translate(100,81)"/>
<path d="M0 0 C1.65 0 3.3 0 5 0 C5 1.65 5 3.3 5 5 C3.68 4.67 2.36 4.34 1 4 C0.67 2.68 0.34 1.36 0 0 Z " fill="#89B143" transform="translate(56,79)"/>
<path d="M0 0 C0.625 1.875 0.625 1.875 1 4 C0.34 4.66 -0.32 5.32 -1 6 C-1.33 6.845625 -1.66 7.69125 -2 8.5625 C-3 11 -3 11 -5 12 C-4.54965877 10.37276701 -4.08944646 8.74826336 -3.625 7.125 C-3.36976562 6.22007813 -3.11453125 5.31515625 -2.8515625 4.3828125 C-2 2 -2 2 0 0 Z " fill="#A2C263" transform="translate(109,73)"/>
<path d="M0 0 C1.48280196 0.78483659 2.9611498 1.57809334 4.4375 2.375 C5.67306641 3.03628906 5.67306641 3.03628906 6.93359375 3.7109375 C9 5 9 5 10 7 C7.03 6.505 7.03 6.505 4 6 C4 5.34 4 4.68 4 4 C3.34 4 2.68 4 2 4 C2 3.34 2 2.68 2 2 C1.34 2 0.68 2 0 2 C0 1.34 0 0.68 0 0 Z " fill="#A1C55B" transform="translate(90,51)"/>
<path d="M0 0 C0.556875 0.226875 1.11375 0.45375 1.6875 0.6875 C0.6975 1.0175 -0.2925 1.3475 -1.3125 1.6875 C-1.3125 2.3475 -1.3125 3.0075 -1.3125 3.6875 C-3.1875 4.3125 -3.1875 4.3125 -5.3125 4.6875 C-5.9725 4.0275 -6.6325 3.3675 -7.3125 2.6875 C-2.88173077 -0.38942308 -2.88173077 -0.38942308 0 0 Z " fill="#C9DFE6" transform="translate(51.3125,25.3125)"/>
<path d="M0 0 C1.98 1.65 3.96 3.3 6 5 C5.01 5.495 5.01 5.495 4 6 C4 6.99 4 7.98 4 9 C3.34 9 2.68 9 2 9 C2.33 7.35 2.66 5.7 3 4 C2.01 4 1.02 4 0 4 C0 2.68 0 1.36 0 0 Z " fill="#D7F1F6" transform="translate(31,127)"/>
<path d="M0 0 C1.65 0 3.3 0 5 0 C5 0.99 5 1.98 5 3 C5.66 3 6.32 3 7 3 C7 3.66 7 4.32 7 5 C4.0625 4.1875 4.0625 4.1875 1 3 C0.67 2.01 0.34 1.02 0 0 Z " fill="#8DB26C" transform="translate(48,124)"/>
<path d="M0 0 C0.96706319 3.00864103 1.27677226 5.05360248 0 8 C-2.0625 9.25 -2.0625 9.25 -4 10 C-2.8905928 6.51329166 -1.73662334 3.22515763 0 0 Z " fill="#DCEDC5" transform="translate(97,98)"/>
<path d="M0 0 C0.66 0 1.32 0 2 0 C1.46274105 3.37705625 0.88935377 6.696686 0 10 C-0.66 10 -1.32 10 -2 10 C-1.34 6.7 -0.68 3.4 0 0 Z " fill="#CBEAAF" transform="translate(92,94)"/>
<path d="M0 0 C0.99 0 1.98 0 3 0 C3 3.51716303 2.17554415 4.37121748 0 7 C-0.33 6.34 -0.66 5.68 -1 5 C-1.99 5.495 -1.99 5.495 -3 6 C-1.125 1.125 -1.125 1.125 0 0 Z " fill="#C2DF8F" transform="translate(101,73)"/>
<path d="M0 0 C0 1.65 0 3.3 0 5 C-1.175625 5.4640625 -1.175625 5.4640625 -2.375 5.9375 C-4.92330128 6.92875038 -4.92330128 6.92875038 -7 8 C-5.84316054 5.30070793 -3.38550714 0 0 0 Z " fill="#99C03A" transform="translate(115,64)"/>
<path d="M0 0 C1.65 0 3.3 0 5 0 C4.43628586 3.26954202 3.50037734 4.82575883 1 7 C1.020625 6.21625 1.04125 5.4325 1.0625 4.625 C1.18684063 2.01885039 1.18684063 2.01885039 0 0 Z " fill="#DEF5F4" transform="translate(22,42)"/>
<path d="M0 0 C1.32 0 2.64 0 4 0 C3.67 0.99 3.34 1.98 3 3 C-0.63 3 -4.26 3 -8 3 C-8 2.67 -8 2.34 -8 2 C-5.36 2 -2.72 2 0 2 C0 1.34 0 0.68 0 0 Z " fill="#128DBD" transform="translate(86,134)"/>
<path d="M0 0 C2.475 0.495 2.475 0.495 5 1 C4.67 2.32 4.34 3.64 4 5 C3.01 4.67 2.02 4.34 1 4 C0.3125 1.9375 0.3125 1.9375 0 0 Z " fill="#0B93D9" transform="translate(105,129)"/>
<path d="M0 0 C0.33 0.66 0.66 1.32 1 2 C1.66 2 2.32 2 3 2 C3.66 4.64 4.32 7.28 5 10 C4.01 10 3.02 10 2 10 C2 8.02 2 6.04 2 4 C1.34 4 0.68 4 0 4 C0 2.68 0 1.36 0 0 Z " fill="#DEFAE6" transform="translate(23,96)"/>
<path d="M0 0 C1.65 0 3.3 0 5 0 C5 0.66 5 1.32 5 2 C4.01 2 3.02 2 2 2 C2 3.65 2 5.3 2 7 C1.34 6.67 0.68 6.34 0 6 C0 4.02 0 2.04 0 0 Z " fill="#D7FAFC" transform="translate(142,86)"/>
<path d="M0 0 C0 4.24645065 -1.81750806 6.38524772 -4 10 C-5 7 -5 7 -4.25 4.4375 C-3 2 -3 2 0 0 Z " fill="#9BBE5A" transform="translate(101,71)"/>
<path d="M0 0 C3.93846154 3.32307692 3.93846154 3.32307692 4.25 6.75 C4.1675 7.4925 4.085 8.235 4 9 C1.24338912 6.51015791 -0.60746455 4.79450934 -1 1 C-0.67 0.67 -0.34 0.34 0 0 Z " fill="#D8F6FC" transform="translate(144,71)"/>
<path d="M0 0 C0.99 0 1.98 0 3 0 C4 2 4 2 4 5 C1.03 4.505 1.03 4.505 -2 4 C-1.34 3.67 -0.68 3.34 0 3 C0 2.01 0 1.02 0 0 Z " fill="#8EBE36" transform="translate(59,60)"/>
<path d="M0 0 C2.3431213 0.25561323 4.67843403 0.59270772 7 1 C7.33 1.66 7.66 2.32 8 3 C6.63875 2.9690625 6.63875 2.9690625 5.25 2.9375 C2.57327412 2.9889755 0.53011948 3.2215017 -2 4 C-1.34 2.68 -0.68 1.36 0 0 Z " fill="#BED585" transform="translate(65,22)"/>
<path d="M0 0 C2.3431213 0.25561323 4.67843403 0.59270772 7 1 C7.33 1.66 7.66 2.32 8 3 C6.25 3.75 6.25 3.75 4 4 C1.75 2.0625 1.75 2.0625 0 0 Z " fill="#7FAC58" transform="translate(42,121)"/>
<path d="M0 0 C0.66 0.99 1.32 1.98 2 3 C1.67 3.99 1.34 4.98 1 6 C1.66 6.33 2.32 6.66 3 7 C1.68 7 0.36 7 -1 7 C-1.625 5.1875 -1.625 5.1875 -2 3 C-1.34 2.01 -0.68 1.02 0 0 Z " fill="#6EA73D" transform="translate(43,114)"/>
<path d="M0 0 C0.93065133 2.60582371 1.14917407 3.64198224 0.0625 6.25 C-0.4634375 7.11625 -0.4634375 7.11625 -1 8 C-1.99 8 -2.98 8 -4 8 C-2.87548273 5.0280615 -1.77706209 2.66559313 0 0 Z " fill="#9DE0F0" transform="translate(134,108)"/>
<path d="M0 0 C0.99 0.66 1.98 1.32 3 2 C3 2.66 3 3.32 3 4 C3.99 4.33 4.98 4.66 6 5 C3.50907189 6.24546405 2.58919267 5.7767578 0 5 C0 4.34 0 3.68 0 3 C-0.99 2.34 -1.98 1.68 -3 1 C-2.01 0.67 -1.02 0.34 0 0 Z " fill="#EDFBED" transform="translate(52,23)"/>
<path d="M0 0 C2.02045442 0.60183749 4.02111039 1.27306096 6 2 C6.33 2.66 6.66 3.32 7 4 C4.69 3.67 2.38 3.34 0 3 C0 2.01 0 1.02 0 0 Z " fill="#DCFBE6" transform="translate(49,127)"/>
<path d="M0 0 C0.99 0 1.98 0 3 0 C3.33 1.32 3.66 2.64 4 4 C2.824375 3.9690625 2.824375 3.9690625 1.625 3.9375 C-0.98114961 3.81315937 -0.98114961 3.81315937 -3 5 C-1.125 1.125 -1.125 1.125 0 0 Z " fill="#61BBD8" transform="translate(133,62)"/>
</svg>
